shantell--extrabold.ufo
<glyph name="quotedbl" format="2">
	<unicode hex="0022"/>
	<advance width="548"/>
	<outline>
		<contour>
			<point x="130" y="347" type="curve" smooth="yes"/>
			<point x="169.462" y="347"/>
			<point x="196.937" y="367.826"/>
			<point x="211" y="407" type="curve" smooth="yes"/>
			<point x="240" y="488"/>
			<point x="249" y="582"/>
			<point x="235" y="647" type="curve" smooth="yes"/>
			<point x="226.989" y="684.053"/>
			<point x="193.737" y="715"/>
			<point x="137" y="715" type="curve" smooth="yes"/>
			<point x="84" y="715"/>
			<point x="58" y="677"/>
			<point x="64" y="621" type="curve" smooth="yes"/>
			<point x="70" y="569"/>
			<point x="61" y="505"/>
			<point x="46" y="461" type="curve" smooth="yes"/>
			<point x="31" y="416"/>
			<point x="73" y="347"/>
		</contour>
		<contour>
			<point x="397" y="347" type="curve" smooth="yes"/>
			<point x="435" y="347"/>
			<point x="461" y="368"/>
			<point x="475" y="407" type="curve" smooth="yes"/>
			<point x="503.687" y="488.115"/>
			<point x="512.837" y="585.767"/>
			<point x="499" y="651" type="curve" smooth="yes"/>
			<point x="490.626" y="687.638"/>
			<point x="459" y="715"/>
			<point x="404" y="715" type="curve" smooth="yes"/>
			<point x="350" y="715"/>
			<point x="329" y="678"/>
			<point x="331" y="621" type="curve" smooth="yes"/>
			<point x="333" y="568"/>
			<point x="323" y="505"/>
			<point x="312" y="445" type="curve" smooth="yes"/>
			<point x="302" y="389"/>
			<point x="341" y="347"/>
		</contour>
	</outline>
</glyph>
<glyph name="quotesingle" format="2">
	<unicode hex="0027"/>
	<advance width="281"/>
	<outline>
		<contour>
			<point x="130" y="347" type="curve" smooth="yes"/>
			<point x="168" y="347"/>
			<point x="194" y="368"/>
			<point x="208" y="407" type="curve" smooth="yes"/>
			<point x="237" y="489"/>
			<point x="246" y="584"/>
			<point x="232" y="650" type="curve" smooth="yes"/>
			<point x="223" y="685"/>
			<point x="193" y="715"/>
			<point x="141" y="715" type="curve" smooth="yes"/>
			<point x="89" y="715"/>
			<point x="56" y="678"/>
			<point x="64" y="625" type="curve" smooth="yes"/>
			<point x="73" y="570"/>
			<point x="61" y="507"/>
			<point x="46" y="461" type="curve" smooth="yes"/>
			<point x="32" y="415"/>
			<point x="73" y="347"/>
		</contour>
	</outline>
</glyph>
<glyph name="parenleft" format="2">
	<unicode hex="0028"/>
	<advance width="499"/>
	<image fileName="parenleft.png" xScale="2.59637" yScale="2.59637" xOffset="-138.746" yOffset="-555.376"/>
	<outline>
		<contour>
			<point x="421" y="656" type="curve" smooth="yes"/>
			<point x="444" y="683"/>
			<point x="454" y="700"/>
			<point x="454" y="720" type="curve" smooth="yes"/>
			<point x="454" y="765"/>
			<point x="408" y="811"/>
			<point x="363" y="811" type="curve" smooth="yes"/>
			<point x="338" y="811"/>
			<point x="313" y="801"/>
			<point x="290" y="773" type="curve" smooth="yes"/>
			<point x="161" y="620"/>
			<point x="49" y="418"/>
			<point x="49" y="186" type="curve" smooth="yes"/>
			<point x="49" y="-59"/>
			<point x="166" y="-187"/>
			<point x="301" y="-243" type="curve" smooth="yes"/>
			<point x="346" y="-261"/>
			<point x="361" y="-263"/>
			<point x="382" y="-263" type="curve" smooth="yes"/>
			<point x="428" y="-263"/>
			<point x="479" y="-232"/>
			<point x="479" y="-183" type="curve" smooth="yes"/>
			<point x="479" y="-152"/>
			<point x="463" y="-139"/>
			<point x="419" y="-124" type="curve" smooth="yes"/>
			<point x="299" y="-84"/>
			<point x="225" y="24"/>
			<point x="225" y="186" type="curve" smooth="yes"/>
			<point x="225" y="376"/>
			<point x="321" y="538"/>
		</contour>
	</outline>
</glyph>
<glyph name="slash" format="2">
	<unicode hex="002F"/>
	<advance width="455"/>
	<outline>
		<contour>
			<point x="397" y="814" type="curve" smooth="yes"/>
			<point x="355" y="814"/>
			<point x="322" y="787"/>
			<point x="292" y="729" type="curve" smooth="yes"/>
			<point x="195" y="543"/>
			<point x="83" y="177"/>
			<point x="46" y="-138" type="curve" smooth="yes"/>
			<point x="39" y="-202"/>
			<point x="74" y="-253"/>
			<point x="137" y="-253" type="curve" smooth="yes"/>
			<point x="187" y="-253"/>
			<point x="219" y="-222"/>
			<point x="225" y="-165" type="curve" smooth="yes"/>
			<point x="261" y="150"/>
			<point x="342" y="399"/>
			<point x="463" y="646" type="curve" smooth="yes"/>
			<point x="509" y="736"/>
			<point x="459" y="813"/>
		</contour>
	</outline>
</glyph>
<glyph name="six" format="2">
	<unicode hex="0036"/>
	<advance width="700"/>
	<outline>
		<contour>
			<point x="465" y="549" type="curve" smooth="yes"/>
			<point x="503.949" y="575.708"/>
			<point x="509" y="592.175"/>
			<point x="509" y="617" type="curve" smooth="yes"/>
			<point x="509" y="663.5"/>
			<point x="467.564" y="710"/>
			<point x="414" y="710" type="curve" smooth="yes"/>
			<point x="389.072" y="710"/>
			<point x="370.824" y="706.554"/>
			<point x="328" y="675" type="curve" smooth="yes"/>
			<point x="137.411" y="535.948"/>
			<point x="25" y="383.668"/>
			<point x="25" y="239" type="curve" smooth="yes"/>
			<point x="25" y="91"/>
			<point x="130.15" y="-10"/>
			<point x="357" y="-10" type="curve" smooth="yes"/>
			<point x="552.534" y="-10"/>
			<point x="675" y="87"/>
			<point x="675" y="225" type="curve" smooth="yes"/>
			<point x="675" y="344.312"/>
			<point x="585" y="437"/>
			<point x="443" y="437" type="curve" smooth="yes"/>
			<point x="286" y="437"/>
			<point x="191" y="355.961"/>
			<point x="191" y="313" type="curve" smooth="yes"/>
			<point x="191" y="287"/>
			<point x="205" y="267"/>
			<point x="247" y="267" type="curve" smooth="yes"/>
			<point x="291.979" y="267"/>
			<point x="313.397" y="288"/>
			<point x="398" y="288" type="curve" smooth="yes"/>
			<point x="473.391" y="288"/>
			<point x="500" y="260"/>
			<point x="500" y="231" type="curve" smooth="yes"/>
			<point x="500" y="192"/>
			<point x="447.097" y="160"/>
			<point x="361" y="160" type="curve" smooth="yes"/>
			<point x="269.919" y="160"/>
			<point x="205" y="180.203"/>
			<point x="205" y="244" type="curve" smooth="yes"/>
			<point x="205" y="348"/>
			<point x="318.549" y="445.252"/>
		</contour>
	</outline>
</glyph>
<glyph name="seven" format="2">
	<unicode hex="0037"/>
	<advance width="700"/>
	<outline>
		<contour>
			<point x="172" y="366" type="curve" smooth="yes"/>
			<point x="130" y="366"/>
			<point x="111" y="342"/>
			<point x="111" y="298" type="curve" smooth="yes"/>
			<point x="111" y="248"/>
			<point x="153" y="201"/>
			<point x="210" y="201" type="curve" smooth="yes"/>
			<point x="307.43" y="201"/>
			<point x="387.425" y="229"/>
			<point x="611" y="229" type="curve" smooth="yes"/>
			<point x="657" y="229"/>
			<point x="682" y="253"/>
			<point x="682" y="289" type="curve" smooth="yes"/>
			<point x="682" y="347"/>
			<point x="635" y="394"/>
			<point x="556" y="394" type="curve" smooth="yes"/>
			<point x="386.588" y="394"/>
			<point x="285.968" y="366"/>
		</contour>
		<contour>
			<point x="52" y="645" type="curve" smooth="yes"/>
			<point x="32" y="638"/>
			<point x="22" y="615"/>
			<point x="22" y="593" type="curve" smooth="yes"/>
			<point x="22" y="547"/>
			<point x="67.477" y="494"/>
			<point x="109" y="494" type="curve" smooth="yes"/>
			<point x="156.309" y="494"/>
			<point x="224" y="546"/>
			<point x="383" y="546" type="curve" smooth="yes"/>
			<point x="427" y="546"/>
			<point x="443" y="535"/>
			<point x="443" y="506" type="curve" smooth="yes"/>
			<point x="443" y="436"/>
			<point x="267" y="240"/>
			<point x="267" y="83" type="curve" smooth="yes"/>
			<point x="267" y="20"/>
			<point x="315" y="-9"/>
			<point x="373" y="-9" type="curve" smooth="yes"/>
			<point x="421" y="-9"/>
			<point x="440" y="9"/>
			<point x="440" y="70" type="curve" smooth="yes"/>
			<point x="440" y="235"/>
			<point x="620" y="365"/>
			<point x="620" y="525" type="curve" smooth="yes"/>
			<point x="620" y="635"/>
			<point x="553.02" y="710"/>
			<point x="376" y="710" type="curve" smooth="yes"/>
			<point x="295.2" y="710"/>
			<point x="151" y="682"/>
		</contour>
	</outline>
</glyph>
<glyph name="equal" format="2">
	<unicode hex="003D"/>
	<advance width="700"/>
	<outline>
		<contour>
			<point x="542" y="400" type="curve" smooth="yes"/>
			<point x="622" y="400"/>
			<point x="644" y="428"/>
			<point x="644" y="468" type="curve" smooth="yes"/>
			<point x="644" y="529"/>
			<point x="575" y="560"/>
			<point x="424" y="560" type="curve" smooth="yes"/>
			<point x="336.25" y="560"/>
			<point x="257.289" y="553.41"/>
			<point x="154" y="537" type="curve" smooth="yes"/>
			<point x="76" y="525"/>
			<point x="52" y="496"/>
			<point x="52" y="457" type="curve" smooth="yes"/>
			<point x="52" y="413"/>
			<point x="83" y="372"/>
			<point x="140" y="372" type="curve" smooth="yes"/>
			<point x="207.325" y="372"/>
			<point x="274" y="400"/>
		</contour>
		<contour>
			<point x="534" y="168" type="curve" smooth="yes"/>
			<point x="607" y="168"/>
			<point x="628" y="195"/>
			<point x="628" y="233" type="curve" smooth="yes"/>
			<point x="628" y="290"/>
			<point x="581" y="315"/>
			<point x="499" y="315" type="curve" smooth="yes"/>
			<point x="384" y="315"/>
			<point x="264" y="299"/>
			<point x="136" y="271" type="curve" smooth="yes"/>
			<point x="59" y="253"/>
			<point x="40" y="223"/>
			<point x="40" y="189" type="curve" smooth="yes"/>
			<point x="40" y="140"/>
			<point x="79" y="106"/>
			<point x="141" y="106" type="curve" smooth="yes"/>
			<point x="228" y="106"/>
			<point x="273" y="168"/>
		</contour>
	</outline>
</glyph>
<glyph name="D" format="2">
	<unicode hex="0044"/>
	<advance width="722"/>
	<outline>
		<contour>
			<point x="232" y="-10" type="curve" smooth="yes"/>
			<point x="435" y="-10"/>
			<point x="683" y="168"/>
			<point x="683" y="422" type="curve" smooth="yes"/>
			<point x="683" y="580"/>
			<point x="565" y="709"/>
			<point x="351" y="709" type="curve" smooth="yes"/>
			<point x="252" y="709"/>
			<point x="132" y="689"/>
			<point x="62" y="670" type="curve" smooth="yes"/>
			<point x="29" y="661"/>
			<point x="15" y="632"/>
			<point x="15" y="607" type="curve" smooth="yes"/>
			<point x="15" y="551"/>
			<point x="59" y="494"/>
			<point x="141" y="494" type="curve" smooth="yes"/>
			<point x="195" y="494"/>
			<point x="242" y="532"/>
			<point x="358" y="532" type="curve" smooth="yes"/>
			<point x="462" y="532"/>
			<point x="504" y="485"/>
			<point x="504" y="414" type="curve" smooth="yes"/>
			<point x="504" y="299"/>
			<point x="398" y="186"/>
			<point x="177" y="145" type="curve"/>
			<point x="296" y="118" type="line"/>
			<point x="275" y="159"/>
			<point x="269" y="190"/>
			<point x="269" y="227" type="curve" smooth="yes"/>
			<point x="269" y="309"/>
			<point x="274" y="427"/>
			<point x="269" y="519" type="curve" smooth="yes"/>
			<point x="267" y="559"/>
			<point x="228" y="591"/>
			<point x="180" y="591" type="curve" smooth="yes"/>
			<point x="119" y="591"/>
			<point x="96" y="574"/>
			<point x="95" y="532" type="curve" smooth="yes"/>
			<point x="91" y="422"/>
			<point x="91" y="324"/>
			<point x="91" y="208" type="curve" smooth="yes"/>
			<point x="91" y="100"/>
			<point x="150" y="-10"/>
		</contour>
	</outline>
	<anchor name="bottom" x="241" y="0"/>
	<anchor name="top" x="385" y="700"/>
</glyph>
<glyph name="H" format="2">
	<unicode hex="0048"/>
	<advance width="715"/>
	<outline>
		<contour>
			<point x="191" y="-12" type="curve" smooth="yes"/>
			<point x="237" y="-12"/>
			<point x="266" y="14.838"/>
			<point x="266" y="61" type="curve" smooth="yes"/>
			<point x="266" y="192.731"/>
			<point x="262" y="384.88"/>
			<point x="262" y="580" type="curve" smooth="yes"/>
			<point x="262" y="670"/>
			<point x="218" y="709"/>
			<point x="157" y="709" type="curve" smooth="yes"/>
			<point x="99" y="709"/>
			<point x="73" y="681"/>
			<point x="73" y="612" type="curve" smooth="yes"/>
			<point x="73" y="558"/>
			<point x="89" y="259"/>
			<point x="81" y="119" type="curve" smooth="yes"/>
			<point x="76" y="31"/>
			<point x="125" y="-12"/>
		</contour>
		<contour>
			<point x="582" y="-10" type="curve" smooth="yes"/>
			<point x="629.949" y="-10"/>
			<point x="651" y="15"/>
			<point x="651" y="57" type="curve" smooth="yes"/>
			<point x="651" y="118"/>
			<point x="632" y="146"/>
			<point x="632" y="233" type="curve" smooth="yes"/>
			<point x="632" y="316"/>
			<point x="638" y="448"/>
			<point x="638" y="554" type="curve" smooth="yes"/>
			<point x="638" y="655"/>
			<point x="595.944" y="704"/>
			<point x="538" y="704" type="curve" smooth="yes"/>
			<point x="484.1" y="704"/>
			<point x="461" y="672"/>
			<point x="461" y="613" type="curve" smooth="yes"/>
			<point x="461" y="534"/>
			<point x="453" y="417"/>
			<point x="453" y="239" type="curve" smooth="yes"/>
			<point x="453" y="77"/>
			<point x="495.691" y="-10"/>
		</contour>
		<contour>
			<point x="196" y="236" type="curve" smooth="yes"/>
			<point x="257" y="236"/>
			<point x="356" y="266"/>
			<point x="628" y="266" type="curve" smooth="yes"/>
			<point x="659" y="266"/>
			<point x="677" y="289"/>
			<point x="677" y="324" type="curve" smooth="yes"/>
			<point x="677" y="382"/>
			<point x="618" y="429"/>
			<point x="515" y="429" type="curve" smooth="yes"/>
			<point x="365" y="429"/>
			<point x="210" y="427"/>
			<point x="67" y="383" type="curve" smooth="yes"/>
			<point x="39" y="375"/>
			<point x="33" y="359"/>
			<point x="33" y="334" type="curve" smooth="yes"/>
			<point x="33" y="283"/>
			<point x="70" y="236"/>
		</contour>
	</outline>
	<anchor name="bottom" x="360" y="0"/>
	<anchor name="top" x="360" y="700"/>
</glyph>
<glyph name="N" format="2">
	<unicode hex="004E"/>
	<advance width="801"/>
	<outline>
		<contour>
			<point x="131" y="-18" type="curve" smooth="yes"/>
			<point x="179" y="-18"/>
			<point x="206" y="4"/>
			<point x="216" y="41" type="curve" smooth="yes"/>
			<point x="236" y="114"/>
			<point x="247" y="217"/>
			<point x="247" y="342" type="curve" smooth="yes"/>
			<point x="247" y="392"/>
			<point x="245" y="420"/>
			<point x="234" y="488" type="curve"/>
			<point x="203" y="482" type="line"/>
			<point x="358" y="257"/>
			<point x="405" y="-17"/>
			<point x="581" y="-17" type="curve" smooth="yes"/>
			<point x="711" y="-17"/>
			<point x="732" y="92"/>
			<point x="732" y="242" type="curve" smooth="yes"/>
			<point x="732" y="391"/>
			<point x="711" y="468"/>
			<point x="737" y="597" type="curve" smooth="yes"/>
			<point x="746" y="640"/>
			<point x="730" y="715"/>
			<point x="646" y="715" type="curve" smooth="yes"/>
			<point x="609" y="715"/>
			<point x="587" y="695"/>
			<point x="573" y="643" type="curve" smooth="yes"/>
			<point x="537" y="508"/>
			<point x="570" y="388"/>
			<point x="570" y="227" type="curve" smooth="yes"/>
			<point x="570" y="139"/>
			<point x="533" y="116"/>
			<point x="510" y="106" type="curve"/>
			<point x="609" y="152" type="line"/>
			<point x="479" y="236"/>
			<point x="380" y="710"/>
			<point x="140" y="710" type="curve" smooth="yes"/>
			<point x="88" y="710"/>
			<point x="61" y="678"/>
			<point x="61" y="638" type="curve" smooth="yes"/>
			<point x="61" y="605"/>
			<point x="77" y="457"/>
			<point x="77" y="342" type="curve" smooth="yes"/>
			<point x="77" y="133"/>
			<point x="53" y="102"/>
			<point x="53" y="46" type="curve" smooth="yes"/>
			<point x="53" y="13"/>
			<point x="73" y="-18"/>
		</contour>
	</outline>
	<anchor name="bottom" x="388" y="0"/>
	<anchor name="top" x="388" y="700"/>
</glyph>
<glyph name="S" format="2">
	<unicode hex="0053"/>
	<advance width="578"/>
	<outline>
		<contour>
			<point x="253" y="-9" type="curve" smooth="yes"/>
			<point x="450" y="-9"/>
			<point x="547" y="46"/>
			<point x="547" y="168" type="curve" smooth="yes"/>
			<point x="547" y="362"/>
			<point x="217" y="385"/>
			<point x="217" y="451" type="curve" smooth="yes"/>
			<point x="217" y="481"/>
			<point x="322" y="518"/>
			<point x="471" y="546" type="curve" smooth="yes"/>
			<point x="508" y="553"/>
			<point x="525" y="581"/>
			<point x="525" y="615" type="curve" smooth="yes"/>
			<point x="525" y="664"/>
			<point x="501" y="710"/>
			<point x="429" y="710" type="curve" smooth="yes"/>
			<point x="306" y="710"/>
			<point x="38" y="612"/>
			<point x="38" y="455" type="curve" smooth="yes"/>
			<point x="38" y="257"/>
			<point x="333" y="236"/>
			<point x="366" y="172" type="curve"/>
			<point x="322.583" y="161.387"/>
			<point x="297.649" y="158"/>
			<point x="237" y="158" type="curve" smooth="yes"/>
			<point x="159.18" y="158"/>
			<point x="140.504" y="185"/>
			<point x="99" y="185" type="curve" smooth="yes"/>
			<point x="65" y="185"/>
			<point x="51" y="163"/>
			<point x="51" y="129" type="curve" smooth="yes"/>
			<point x="51" y="54"/>
			<point x="120" y="-9"/>
		</contour>
	</outline>
	<anchor name="bottom" x="294" y="0"/>
	<anchor name="top" x="294" y="700"/>
</glyph>
<glyph name="backslash" format="2">
	<unicode hex="005C"/>
	<advance width="455"/>
	<outline>
		<contour>
			<point x="249" y="691" type="curve" smooth="yes"/>
			<point x="245" y="770"/>
			<point x="203" y="813"/>
			<point x="146" y="813" type="curve" smooth="yes"/>
			<point x="83" y="813"/>
			<point x="56" y="767"/>
			<point x="60" y="678" type="curve" smooth="yes"/>
			<point x="69" y="468"/>
			<point x="155" y="95"/>
			<point x="280" y="-196" type="curve" smooth="yes"/>
			<point x="298" y="-238"/>
			<point x="332" y="-264"/>
			<point x="370" y="-264" type="curve" smooth="yes"/>
			<point x="433" y="-264"/>
			<point x="485" y="-209"/>
			<point x="449" y="-130" type="curve" smooth="yes"/>
			<point x="317" y="159"/>
			<point x="263" y="417"/>
		</contour>
	</outline>
</glyph>
<glyph name="asciicircum" format="2">
	<unicode hex="005E"/>
	<advance width="610"/>
	<outline>
		<contour>
			<point x="263" y="584" type="line"/>
			<point x="361" y="457"/>
			<point x="415" y="416"/>
			<point x="479" y="416" type="curve" smooth="yes"/>
			<point x="530" y="416"/>
			<point x="564" y="441"/>
			<point x="564" y="473" type="curve" smooth="yes"/>
			<point x="564" y="517"/>
			<point x="501" y="526"/>
			<point x="404" y="662" type="curve" smooth="yes"/>
			<point x="376" y="702"/>
			<point x="353" y="710"/>
			<point x="320" y="710" type="curve" smooth="yes"/>
			<point x="263" y="710"/>
			<point x="246" y="702"/>
			<point x="187" y="652" type="curve" smooth="yes"/>
			<point x="59" y="545"/>
			<point x="47" y="523"/>
			<point x="47" y="490" type="curve" smooth="yes"/>
			<point x="47" y="454"/>
			<point x="91" y="411"/>
			<point x="134" y="411" type="curve" smooth="yes"/>
			<point x="173" y="411"/>
			<point x="188" y="423"/>
			<point x="336" y="582" type="curve"/>
		</contour>
	</outline>
</glyph>
<glyph name="f" format="2">
	<unicode hex="0066"/>
	<advance width="417"/>
	<outline>
		<contour>
			<point x="346" y="366" type="curve" smooth="yes"/>
			<point x="378" y="369"/>
			<point x="393" y="395"/>
			<point x="393" y="424" type="curve" smooth="yes"/>
			<point x="393" y="484"/>
			<point x="338" y="516"/>
			<point x="297" y="516" type="curve" smooth="yes"/>
			<point x="261" y="516"/>
			<point x="216" y="508"/>
			<point x="160" y="488" type="curve" smooth="yes"/>
			<point x="113" y="471"/>
			<point x="86" y="428"/>
			<point x="86" y="377" type="curve" smooth="yes"/>
			<point x="86" y="340"/>
			<point x="124" y="314"/>
			<point x="167" y="314" type="curve" smooth="yes"/>
			<point x="197" y="314"/>
			<point x="224" y="355"/>
		</contour>
		<contour>
			<point x="180" y="-10" type="curve" smooth="yes"/>
			<point x="228" y="-10"/>
			<point x="251" y="14"/>
			<point x="251" y="104" type="curve" smooth="yes"/>
			<point x="251" y="235.733"/>
			<point x="221" y="309.689"/>
			<point x="221" y="390" type="curve" smooth="yes"/>
			<point x="221" y="530"/>
			<point x="239" y="562"/>
			<point x="360" y="606" type="curve" smooth="yes"/>
			<point x="390" y="617"/>
			<point x="407" y="638"/>
			<point x="407" y="673" type="curve" smooth="yes"/>
			<point x="407" y="736"/>
			<point x="361" y="760"/>
			<point x="312" y="760" type="curve" smooth="yes"/>
			<point x="180" y="760"/>
			<point x="52" y="626"/>
			<point x="52" y="424" type="curve" smooth="yes"/>
			<point x="52" y="314.23"/>
			<point x="77" y="270.779"/>
			<point x="77" y="145" type="curve" smooth="yes"/>
			<point x="77" y="45"/>
			<point x="128" y="-10"/>
		</contour>
	</outline>
	<anchor name="bottom" x="172" y="0"/>
	<anchor name="top" x="289" y="750"/>
</glyph>
<glyph name="h" format="2">
	<unicode hex="0068"/>
	<advance width="693"/>
	<outline>
		<contour>
			<point x="583" y="-12" type="curve" smooth="yes"/>
			<point x="633" y="-12"/>
			<point x="663" y="10"/>
			<point x="663" y="45" type="curve" smooth="yes"/>
			<point x="663" y="61"/>
			<point x="658" y="78"/>
			<point x="650" y="93" type="curve" smooth="yes"/>
			<point x="632.634" y="123.872"/>
			<point x="613" y="156"/>
			<point x="600" y="267" type="curve" smooth="yes"/>
			<point x="581" y="434"/>
			<point x="549" y="532"/>
			<point x="429" y="532" type="curve" smooth="yes"/>
			<point x="346" y="532"/>
			<point x="265" y="455"/>
			<point x="194" y="297" type="curve"/>
			<point x="230" y="224" type="line"/>
			<point x="230" y="419.333"/>
			<point x="252" y="506.05"/>
			<point x="252" y="577" type="curve" smooth="yes"/>
			<point x="252" y="720"/>
			<point x="188" y="760"/>
			<point x="136" y="760" type="curve" smooth="yes"/>
			<point x="82" y="760"/>
			<point x="63" y="731"/>
			<point x="63" y="701" type="curve" smooth="yes"/>
			<point x="63" y="660"/>
			<point x="78" y="632"/>
			<point x="78" y="555" type="curve" smooth="yes"/>
			<point x="78" y="451.34"/>
			<point x="55" y="323.553"/>
			<point x="55" y="135" type="curve" smooth="yes"/>
			<point x="55" y="53.317"/>
			<point x="95" y="-6"/>
			<point x="163" y="-6" type="curve" smooth="yes"/>
			<point x="197" y="-6"/>
			<point x="215.218" y="2.628"/>
			<point x="233" y="41" type="curve" smooth="yes"/>
			<point x="308" y="210"/>
			<point x="379" y="308"/>
			<point x="416" y="321" type="curve"/>
			<point x="423" y="289"/>
			<point x="428" y="251"/>
			<point x="440" y="143" type="curve" smooth="yes"/>
			<point x="451.988" y="50.096"/>
			<point x="491.405" y="-12"/>
		</contour>
	</outline>
	<anchor name="bottom" x="350" y="0"/>
	<anchor name="top" x="143" y="750"/>
</glyph>
<glyph name="o" format="2">
	<unicode hex="006F"/>
	<advance width="664"/>
	<outline>
		<contour>
			<point x="347" y="-12" type="curve" smooth="yes"/>
			<point x="506" y="-12"/>
			<point x="627" y="108"/>
			<point x="627" y="266" type="curve" smooth="yes"/>
			<point x="627" y="420"/>
			<point x="523" y="516"/>
			<point x="343" y="516" type="curve" smooth="yes"/>
			<point x="258" y="516"/>
			<point x="163" y="428"/>
			<point x="163" y="345" type="curve" smooth="yes"/>
			<point x="163" y="285"/>
			<point x="188" y="269"/>
			<point x="213" y="269" type="curve" smooth="yes"/>
			<point x="245" y="269"/>
			<point x="262" y="279"/>
			<point x="290" y="307" type="curve" smooth="yes"/>
			<point x="317.024" y="334.024"/>
			<point x="331.4" y="351"/>
			<point x="359" y="351" type="curve" smooth="yes"/>
			<point x="415.471" y="351"/>
			<point x="455" y="314"/>
			<point x="455" y="258" type="curve" smooth="yes"/>
			<point x="455" y="193"/>
			<point x="407.835" y="149"/>
			<point x="342" y="149" type="curve" smooth="yes"/>
			<point x="262.448" y="149"/>
			<point x="212" y="193"/>
			<point x="212" y="259" type="curve" smooth="yes"/>
			<point x="212" y="299.753"/>
			<point x="251.862" y="340.959"/>
			<point x="289" y="352" type="curve" smooth="yes"/>
			<point x="357" y="373"/>
			<point x="374" y="416"/>
			<point x="374" y="470" type="curve" smooth="yes"/>
			<point x="374" y="515"/>
			<point x="336" y="533"/>
			<point x="297" y="533" type="curve" smooth="yes"/>
			<point x="171" y="533"/>
			<point x="37" y="396.962"/>
			<point x="37" y="266" type="curve" smooth="yes"/>
			<point x="37" y="104"/>
			<point x="167" y="-12"/>
		</contour>
	</outline>
	<anchor name="bottom" x="346" y="0"/>
	<anchor name="ogonek" x="502" y="37"/>
	<anchor name="top" x="346" y="515"/>
</glyph>
<glyph name="currency" format="2">
	<unicode hex="00A4"/>
	<advance width="700"/>
	<outline>
		<contour>
			<point x="328" y="413" type="curve" smooth="yes"/>
			<point x="344" y="425"/>
			<point x="353" y="446"/>
			<point x="353" y="466" type="curve" smooth="yes"/>
			<point x="353" y="518"/>
			<point x="333" y="539"/>
			<point x="283" y="539" type="curve" smooth="yes"/>
			<point x="234" y="539"/>
			<point x="117" y="470"/>
			<point x="121" y="325" type="curve" smooth="yes"/>
			<point x="125" y="192"/>
			<point x="210" y="132"/>
			<point x="331" y="132" type="curve" smooth="yes"/>
			<point x="468" y="132"/>
			<point x="586" y="233"/>
			<point x="580" y="406" type="curve" smooth="yes"/>
			<point x="576" y="525"/>
			<point x="514" y="599"/>
			<point x="374" y="599" type="curve" smooth="yes"/>
			<point x="251" y="599"/>
			<point x="200" y="535"/>
			<point x="200" y="473" type="curve" smooth="yes"/>
			<point x="200" y="432"/>
			<point x="226" y="412"/>
			<point x="265" y="412" type="curve" smooth="yes"/>
			<point x="295" y="412"/>
			<point x="294" y="430"/>
			<point x="368" y="430" type="curve" smooth="yes"/>
			<point x="397" y="430"/>
			<point x="408" y="414"/>
			<point x="409" y="394" type="curve" smooth="yes"/>
			<point x="412" y="332"/>
			<point x="375" y="295"/>
			<point x="332" y="295" type="curve" smooth="yes"/>
			<point x="304" y="295"/>
			<point x="285" y="308"/>
			<point x="285" y="338" type="curve" smooth="yes"/>
			<point x="285" y="369"/>
			<point x="298" y="390"/>
		</contour>
		<contour>
			<point x="322" y="218" type="curve"/>
			<point x="208" y="338" type="line"/>
			<point x="146" y="279"/>
			<point x="102" y="212"/>
			<point x="80" y="157" type="curve" smooth="yes"/>
			<point x="46" y="74"/>
			<point x="74" y="33"/>
			<point x="119" y="33" type="curve" smooth="yes"/>
			<point x="156" y="33"/>
			<point x="186" y="50"/>
			<point x="218" y="98" type="curve" smooth="yes"/>
			<point x="248" y="142"/>
			<point x="283" y="182"/>
		</contour>
		<contour>
			<point x="593" y="214" type="curve" smooth="yes"/>
			<point x="568" y="247"/>
			<point x="521" y="303"/>
			<point x="471" y="352" type="curve"/>
			<point x="351" y="235" type="line"/>
			<point x="394" y="194"/>
			<point x="434" y="148"/>
			<point x="461" y="111" type="curve" smooth="yes"/>
			<point x="500" y="57"/>
			<point x="534" y="47"/>
			<point x="557" y="47" type="curve" smooth="yes"/>
			<point x="611" y="47"/>
			<point x="640" y="70"/>
			<point x="640" y="110" type="curve" smooth="yes"/>
			<point x="640" y="129"/>
			<point x="634" y="156"/>
		</contour>
		<contour>
			<point x="620" y="494" type="curve" smooth="yes"/>
			<point x="649" y="512"/>
			<point x="658" y="528"/>
			<point x="658" y="564" type="curve" smooth="yes"/>
			<point x="658" y="616"/>
			<point x="636" y="648"/>
			<point x="590" y="648" type="curve" smooth="yes"/>
			<point x="566" y="648"/>
			<point x="529" y="636"/>
			<point x="493" y="613" type="curve" smooth="yes"/>
			<point x="447" y="583"/>
			<point x="404" y="547"/>
			<point x="368" y="511" type="curve"/>
			<point x="482" y="391" type="line"/>
			<point x="525" y="429"/>
			<point x="571" y="464"/>
		</contour>
		<contour>
			<point x="233" y="388" type="curve"/>
			<point x="353" y="505" type="line"/>
			<point x="303" y="554"/>
			<point x="253" y="601"/>
			<point x="226" y="621" type="curve" smooth="yes"/>
			<point x="188" y="651"/>
			<point x="166" y="660"/>
			<point x="139" y="660" type="curve" smooth="yes"/>
			<point x="94" y="660"/>
			<point x="68" y="623"/>
			<point x="68" y="576" type="curve" smooth="yes"/>
			<point x="68" y="533"/>
			<point x="90" y="515"/>
			<point x="123" y="488" type="curve" smooth="yes"/>
			<point x="154" y="461"/>
			<point x="194" y="425"/>
		</contour>
	</outline>
</glyph>
<glyph name="questiondown" format="2">
	<unicode hex="00BF"/>
	<advance width="452"/>
	<outline>
		<contour>
			<point x="449" y="-225" type="curve" smooth="yes"/>
			<point x="482" y="-208"/>
			<point x="505" y="-181"/>
			<point x="505" y="-144" type="curve" smooth="yes"/>
			<point x="505" y="-88"/>
			<point x="470" y="-63"/>
			<point x="428" y="-63" type="curve" smooth="yes"/>
			<point x="378" y="-63"/>
			<point x="352" y="-91"/>
			<point x="252" y="-91" type="curve" smooth="yes"/>
			<point x="202" y="-91"/>
			<point x="184" y="-69"/>
			<point x="184" y="-40" type="curve" smooth="yes"/>
			<point x="184" y="-13"/>
			<point x="193" y="15"/>
			<point x="262" y="48" type="curve" smooth="yes"/>
			<point x="348" y="88"/>
			<point x="370" y="120"/>
			<point x="370" y="164" type="curve" smooth="yes"/>
			<point x="370" y="227"/>
			<point x="323" y="283"/>
			<point x="246" y="283" type="curve" smooth="yes"/>
			<point x="204" y="283"/>
			<point x="183" y="255"/>
			<point x="183" y="231" type="curve" smooth="yes"/>
			<point x="183" y="209"/>
			<point x="200" y="195"/>
			<point x="200" y="187" type="curve" smooth="yes"/>
			<point x="200" y="178"/>
			<point x="187" y="168"/>
			<point x="120" y="131" type="curve" smooth="yes"/>
			<point x="56" y="99"/>
			<point x="4" y="40"/>
			<point x="4" y="-47" type="curve" smooth="yes"/>
			<point x="4" y="-180"/>
			<point x="94" y="-261"/>
			<point x="263" y="-261" type="curve" smooth="yes"/>
			<point x="325" y="-261"/>
			<point x="399" y="-251"/>
		</contour>
		<contour>
			<point x="258" y="527" type="curve" smooth="yes"/>
			<point x="194" y="527"/>
			<point x="161" y="496"/>
			<point x="161" y="447" type="curve" smooth="yes"/>
			<point x="161" y="397"/>
			<point x="199" y="349"/>
			<point x="281" y="349" type="curve" smooth="yes"/>
			<point x="334" y="349"/>
			<point x="370" y="378"/>
			<point x="370" y="438" type="curve" smooth="yes"/>
			<point x="370" y="495"/>
			<point x="328" y="527"/>
		</contour>
	</outline>
</glyph>
<glyph name="oslash" format="2">
	<unicode hex="00F8"/>
	<advance width="678"/>
	<outline>
		<contour>
			<point x="57" y="22" type="curve" smooth="yes"/>
			<point x="19" y="-42"/>
			<point x="68" y="-118"/>
			<point x="128" y="-118" type="curve" smooth="yes"/>
			<point x="160" y="-118"/>
			<point x="187" y="-98"/>
			<point x="209" y="-60" type="curve" smooth="yes"/>
			<point x="241" y="-5"/>
			<point x="284" y="40"/>
			<point x="284" y="69" type="curve" smooth="yes"/>
			<point x="284" y="132"/>
			<point x="249" y="154"/>
			<point x="201" y="154" type="curve" smooth="yes"/>
			<point x="147" y="154"/>
			<point x="98" y="91"/>
		</contour>
		<contour>
			<point x="605" y="397" type="curve" smooth="yes"/>
			<point x="695" y="487"/>
			<point x="679" y="581"/>
			<point x="591" y="581" type="curve" smooth="yes"/>
			<point x="562" y="581"/>
			<point x="531" y="569"/>
			<point x="493" y="528" type="curve" smooth="yes"/>
			<point x="367.983" y="388.637"/>
			<point x="300" y="319"/>
			<point x="300" y="242" type="curve" smooth="yes"/>
			<point x="300" y="222.2"/>
			<point x="311.208" y="212"/>
			<point x="333" y="212" type="curve" smooth="yes"/>
			<point x="370.778" y="212"/>
			<point x="431.592" y="223.592"/>
		</contour>
		<contour>
			<point x="347" y="-12" type="curve" smooth="yes"/>
			<point x="506" y="-12"/>
			<point x="627" y="108"/>
			<point x="627" y="266" type="curve" smooth="yes"/>
			<point x="627" y="426.16"/>
			<point x="523" y="526"/>
			<point x="343" y="526" type="curve" smooth="yes"/>
			<point x="253.278" y="526"/>
			<point x="153" y="448"/>
			<point x="153" y="375" type="curve" smooth="yes"/>
			<point x="153" y="315"/>
			<point x="178" y="299"/>
			<point x="203" y="299" type="curve" smooth="yes"/>
			<point x="235" y="299"/>
			<point x="252" y="309"/>
			<point x="280" y="337" type="curve" smooth="yes"/>
			<point x="303.857" y="360.857"/>
			<point x="325" y="367"/>
			<point x="355" y="367" type="curve" smooth="yes"/>
			<point x="415" y="367"/>
			<point x="457" y="324.135"/>
			<point x="457" y="258" type="curve" smooth="yes"/>
			<point x="457" y="196"/>
			<point x="409" y="154"/>
			<point x="342" y="154" type="curve" smooth="yes"/>
			<point x="260" y="154"/>
			<point x="208" y="196"/>
			<point x="208" y="259" type="curve" smooth="yes"/>
			<point x="208" y="302.382"/>
			<point x="249.602" y="345.877"/>
			<point x="289" y="358" type="curve" smooth="yes"/>
			<point x="356.518" y="378.851"/>
			<point x="374" y="416.576"/>
			<point x="374" y="466" type="curve" smooth="yes"/>
			<point x="374" y="511"/>
			<point x="336" y="529"/>
			<point x="297" y="529" type="curve" smooth="yes"/>
			<point x="171" y="529"/>
			<point x="37" y="395"/>
			<point x="37" y="266" type="curve" smooth="yes"/>
			<point x="37" y="104"/>
			<point x="167" y="-12"/>
		</contour>
	</outline>
	<anchor name="top" x="334" y="515"/>
</glyph>
<glyph name="dcroat" format="2">
	<unicode hex="0111"/>
	<advance width="708"/>
	<outline>
		<contour>
			<point x="366" y="561" type="curve" smooth="yes"/>
			<point x="401" y="561"/>
			<point x="460" y="566"/>
			<point x="618" y="566" type="curve" smooth="yes"/>
			<point x="668" y="566"/>
			<point x="697" y="590"/>
			<point x="697" y="628" type="curve" smooth="yes"/>
			<point x="697" y="667.474"/>
			<point x="662" y="703"/>
			<point x="585" y="703" type="curve" smooth="yes"/>
			<point x="488" y="703"/>
			<point x="399" y="703"/>
			<point x="307" y="694" type="curve" smooth="yes"/>
			<point x="250" y="688"/>
			<point x="233" y="671"/>
			<point x="233" y="638" type="curve" smooth="yes"/>
			<point x="233" y="590.371"/>
			<point x="281" y="561"/>
		</contour>
		<component base="d"/>
	</outline>
	<anchor name="bottom" x="309" y="0"/>
	<anchor name="top" x="528" y="750"/>
</glyph>
<glyph name="lslash" format="2">
	<unicode hex="0142"/>
	<advance width="403"/>
	<outline>
		<contour>
			<point x="161" y="298" type="curve" smooth="yes"/>
			<point x="197" y="311"/>
			<point x="239" y="329"/>
			<point x="381" y="407" type="curve" smooth="yes"/>
			<point x="429" y="433"/>
			<point x="422" y="528"/>
			<point x="319" y="528" type="curve" smooth="yes"/>
			<point x="294" y="528"/>
			<point x="263" y="521"/>
			<point x="228" y="502" type="curve" smooth="yes"/>
			<point x="141" y="455"/>
			<point x="76" y="435"/>
			<point x="-7" y="376" type="curve" smooth="yes"/>
			<point x="-58" y="340"/>
			<point x="-9" y="275"/>
			<point x="62" y="275" type="curve" smooth="yes"/>
			<point x="90" y="275"/>
			<point x="124" y="284"/>
		</contour>
		<component base="l"/>
	</outline>
	<anchor name="bottom" x="233" y="0"/>
	<anchor name="top" x="164" y="750"/>
</glyph>
<glyph name="eng" format="2">
	<unicode hex="014B"/>
	<advance width="660"/>
	<outline>
		<contour>
			<point x="438" y="107" type="curve" smooth="yes"/>
			<point x="438" y="-20"/>
			<point x="407" y="-88"/>
			<point x="355" y="-88" type="curve" smooth="yes"/>
			<point x="321" y="-88"/>
			<point x="306.708" y="-75"/>
			<point x="279" y="-75" type="curve" smooth="yes"/>
			<point x="250" y="-75"/>
			<point x="230" y="-97"/>
			<point x="230" y="-136" type="curve" smooth="yes"/>
			<point x="230" y="-204.06"/>
			<point x="278.727" y="-260"/>
			<point x="364" y="-260" type="curve" smooth="yes"/>
			<point x="508.134" y="-260"/>
			<point x="607" y="-130"/>
			<point x="607" y="123" type="curve" smooth="yes"/>
			<point x="607" y="399"/>
			<point x="549" y="524"/>
			<point x="440" y="524" type="curve" smooth="yes"/>
			<point x="342" y="524"/>
			<point x="235" y="441"/>
			<point x="168" y="252" type="curve"/>
			<point x="218" y="186" type="line"/>
			<point x="218" y="325"/>
			<point x="245" y="341"/>
			<point x="245" y="412" type="curve" smooth="yes"/>
			<point x="245" y="477"/>
			<point x="183" y="511"/>
			<point x="142" y="511" type="curve" smooth="yes"/>
			<point x="105" y="511"/>
			<point x="85" y="490"/>
			<point x="85" y="461" type="curve" smooth="yes"/>
			<point x="85" y="338"/>
			<point x="56" y="286"/>
			<point x="56" y="151" type="curve" smooth="yes"/>
			<point x="56" y="58"/>
			<point x="86" y="-9"/>
			<point x="146" y="-9" type="curve" smooth="yes"/>
			<point x="192" y="-9"/>
			<point x="217" y="6"/>
			<point x="230" y="50" type="curve" smooth="yes"/>
			<point x="283" y="227"/>
			<point x="375" y="357"/>
			<point x="426" y="357" type="curve" smooth="yes"/>
			<point x="444" y="357"/>
			<point x="457" y="346"/>
			<point x="484" y="317" type="curve"/>
			<point x="488.524" y="368.573"/>
			<point x="449" y="390"/>
			<point x="398" y="373" type="curve"/>
			<point x="426" y="337"/>
			<point x="438" y="293"/>
		</contour>
	</outline>
</glyph>
<glyph name="tildecomb" format="2">
	<unicode hex="0303"/>
	<image fileName="S_creen S_hot 2020-09-24 at 10.58.01 P_M_.png" xScale="5.88565" yScale="5.88565" xOffset="-8568.991" yOffset="-705.564"/>
	<outline>
		<contour>
			<point x="-136" y="573" type="curve" smooth="yes"/>
			<point x="-82" y="573"/>
			<point x="-86" y="613"/>
			<point x="-38" y="613" type="curve" smooth="yes"/>
			<point x="-1" y="613"/>
			<point x="23" y="577"/>
			<point x="81" y="577" type="curve" smooth="yes"/>
			<point x="162" y="577"/>
			<point x="217" y="625"/>
			<point x="217" y="693" type="curve" smooth="yes"/>
			<point x="217" y="749"/>
			<point x="194" y="773"/>
			<point x="155" y="773" type="curve" smooth="yes"/>
			<point x="108" y="773"/>
			<point x="105" y="733"/>
			<point x="59" y="733" type="curve" smooth="yes"/>
			<point x="24" y="733"/>
			<point x="-9" y="782"/>
			<point x="-85" y="782" type="curve" smooth="yes"/>
			<point x="-178" y="782"/>
			<point x="-217" y="725"/>
			<point x="-217" y="666" type="curve" smooth="yes"/>
			<point x="-217" y="617"/>
			<point x="-186" y="573"/>
		</contour>
	</outline>
	<anchor name="_top" x="0" y="515"/>
	<anchor name="top" x="0" y="760"/>
</glyph>
<glyph name="brevecomb" format="2">
	<unicode hex="0306"/>
	<outline>
		<contour>
			<point x="0" y="715" type="curve" smooth="yes"/>
			<point x="-42" y="715"/>
			<point x="-56" y="732"/>
			<point x="-67" y="752" type="curve" smooth="yes"/>
			<point x="-78" y="773"/>
			<point x="-96" y="785"/>
			<point x="-126" y="785" type="curve" smooth="yes"/>
			<point x="-171" y="785"/>
			<point x="-205" y="760"/>
			<point x="-205" y="711" type="curve" smooth="yes"/>
			<point x="-205" y="637.267"/>
			<point x="-122" y="571"/>
			<point x="-11" y="571" type="curve" smooth="yes"/>
			<point x="125" y="571"/>
			<point x="205" y="633.533"/>
			<point x="205" y="711" type="curve" smooth="yes"/>
			<point x="205" y="760"/>
			<point x="180" y="790"/>
			<point x="129" y="790" type="curve" smooth="yes"/>
			<point x="97" y="790"/>
			<point x="84" y="774"/>
			<point x="73" y="751" type="curve" smooth="yes"/>
			<point x="63" y="731"/>
			<point x="46" y="715"/>
		</contour>
	</outline>
	<anchor name="_top" x="0" y="515"/>
	<anchor name="top" x="0" y="750"/>
</glyph>
<glyph name="overlaystrokeshortcmb" format="2">
	<unicode hex="0335"/>
	<advance width="530"/>
	<outline>
		<contour>
			<point x="206" y="176" type="curve" smooth="yes"/>
			<point x="239" y="176"/>
			<point x="292" y="186"/>
			<point x="418" y="186" type="curve" smooth="yes"/>
			<point x="468" y="186"/>
			<point x="487" y="211"/>
			<point x="487" y="240" type="curve" smooth="yes"/>
			<point x="487" y="298"/>
			<point x="433" y="349"/>
			<point x="325" y="349" type="curve" smooth="yes"/>
			<point x="250" y="349"/>
			<point x="169" y="343"/>
			<point x="98" y="328" type="curve" smooth="yes"/>
			<point x="55" y="317"/>
			<point x="43" y="297"/>
			<point x="43" y="260" type="curve" smooth="yes"/>
			<point x="43" y="215"/>
			<point x="97" y="176"/>
		</contour>
	</outline>
</glyph>
<glyph name="Dzhecyr" format="2">
	<unicode hex="040F"/>
	<advance width="719"/>
	<outline>
		<contour>
			<point x="50" y="193" type="curve" smooth="yes"/>
			<point x="66" y="82"/>
			<point x="144" y="-10"/>
			<point x="286" y="-10" type="curve" smooth="yes"/>
			<point x="369" y="-10"/>
			<point x="465" y="-3"/>
			<point x="542" y="32" type="curve" smooth="yes"/>
			<point x="604" y="60"/>
			<point x="645" y="101"/>
			<point x="658" y="172" type="curve" smooth="yes"/>
			<point x="662" y="194"/>
			<point x="667" y="237"/>
			<point x="667" y="292" type="curve" smooth="yes"/>
			<point x="667" y="383"/>
			<point x="643" y="576"/>
			<point x="624" y="641" type="curve" smooth="yes"/>
			<point x="610" y="688"/>
			<point x="588" y="713"/>
			<point x="541" y="713" type="curve" smooth="yes"/>
			<point x="486" y="713"/>
			<point x="445" y="666"/>
			<point x="445" y="622" type="curve" smooth="yes"/>
			<point x="445" y="561"/>
			<point x="487" y="413"/>
			<point x="487" y="328" type="curve" smooth="yes"/>
			<point x="487" y="228"/>
			<point x="483" y="187"/>
			<point x="473" y="143" type="curve"/>
			<point x="515" y="203" type="line"/>
			<point x="459" y="180"/>
			<point x="387" y="161"/>
			<point x="327" y="161" type="curve" smooth="yes"/>
			<point x="267" y="161"/>
			<point x="226" y="196"/>
			<point x="226" y="256" type="curve" smooth="yes"/>
			<point x="226" y="385"/>
			<point x="245" y="515"/>
			<point x="245" y="596" type="curve" smooth="yes"/>
			<point x="245" y="645"/>
			<point x="203" y="714"/>
			<point x="148" y="714" type="curve" smooth="yes"/>
			<point x="114" y="714"/>
			<point x="84" y="695"/>
			<point x="73" y="650" type="curve" smooth="yes"/>
			<point x="56" y="577"/>
			<point x="32" y="320"/>
		</contour>
		<contour>
			<point x="295" y="-123" type="curve" smooth="yes"/>
			<point x="295" y="-163"/>
			<point x="329" y="-207"/>
			<point x="396" y="-207" type="curve" smooth="yes"/>
			<point x="439" y="-207"/>
			<point x="469" y="-168"/>
			<point x="469" y="-128" type="curve" smooth="yes"/>
			<point x="469" y="-95"/>
			<point x="460" y="-19"/>
			<point x="460" y="61" type="curve" smooth="yes"/>
			<point x="460" y="87"/>
			<point x="438" y="99"/>
			<point x="410" y="99" type="curve" smooth="yes"/>
			<point x="367" y="99"/>
			<point x="310" y="69"/>
			<point x="310" y="21" type="curve" smooth="yes"/>
			<point x="310" y="-10"/>
			<point x="295" y="-86"/>
		</contour>
	</outline>
</glyph>
<glyph name="Icyr" format="2">
	<unicode hex="0418"/>
	<advance width="742"/>
	<outline>
		<contour>
			<point x="164" y="-14" type="curve" smooth="yes"/>
			<point x="92" y="-14"/>
			<point x="59" y="27"/>
			<point x="59" y="129" type="curve" smooth="yes"/>
			<point x="59" y="204"/>
			<point x="80" y="369"/>
			<point x="80" y="505" type="curve" smooth="yes"/>
			<point x="80" y="551"/>
			<point x="74" y="585"/>
			<point x="74" y="626" type="curve" smooth="yes"/>
			<point x="74" y="686"/>
			<point x="95" y="717"/>
			<point x="141" y="717" type="curve" smooth="yes"/>
			<point x="197.223" y="717"/>
			<point x="257" y="685"/>
			<point x="257" y="585" type="curve" smooth="yes"/>
			<point x="257" y="463"/>
			<point x="240" y="329"/>
			<point x="240" y="230" type="curve" smooth="yes"/>
			<point x="240" y="159"/>
			<point x="234" y="134"/>
			<point x="234" y="88" type="curve"/>
			<point x="163" y="167" type="line"/>
			<point x="237" y="225"/>
			<point x="297" y="318"/>
			<point x="359" y="417" type="curve" smooth="yes"/>
			<point x="452" y="565"/>
			<point x="502" y="716"/>
			<point x="585" y="716" type="curve" smooth="yes"/>
			<point x="638" y="716"/>
			<point x="677" y="679"/>
			<point x="677" y="621" type="curve" smooth="yes"/>
			<point x="677" y="561"/>
			<point x="664" y="443"/>
			<point x="664" y="350" type="curve" smooth="yes"/>
			<point x="664" y="154"/>
			<point x="695" y="136"/>
			<point x="695" y="78" type="curve" smooth="yes"/>
			<point x="695" y="35"/>
			<point x="646" y="-14"/>
			<point x="606" y="-14" type="curve" smooth="yes"/>
			<point x="566" y="-14"/>
			<point x="536" y="4"/>
			<point x="523" y="44" type="curve" smooth="yes"/>
			<point x="501" y="111"/>
			<point x="495" y="245"/>
			<point x="495" y="328" type="curve" smooth="yes"/>
			<point x="495" y="426"/>
			<point x="512" y="539"/>
			<point x="522" y="582" type="curve"/>
			<point x="582" y="540" type="line"/>
			<point x="537" y="426"/>
			<point x="460" y="289"/>
			<point x="395" y="195" type="curve" smooth="yes"/>
			<point x="331" y="103"/>
			<point x="237" y="-14"/>
		</contour>
	</outline>
	<anchor name="top" x="369" y="700"/>
	<guideline x="355" y="447" angle="90" identifier="9d4iEHlV35"/>
</glyph>
<glyph name="Ishortcyr" format="2">
	<unicode hex="0419"/>
	<advance width="713"/>
	<outline>
		<contour>
			<point x="377" y="896" type="curve" smooth="yes"/>
			<point x="354" y="896"/>
			<point x="341" y="919"/>
			<point x="326" y="943" type="curve" smooth="yes"/>
			<point x="312" y="965"/>
			<point x="293" y="982"/>
			<point x="267" y="982" type="curve" smooth="yes"/>
			<point x="222" y="982"/>
			<point x="192" y="954"/>
			<point x="192" y="905" type="curve" smooth="yes"/>
			<point x="192" y="826"/>
			<point x="257" y="768"/>
			<point x="358" y="768" type="curve" smooth="yes"/>
			<point x="482" y="768"/>
			<point x="580" y="846"/>
			<point x="580" y="914" type="curve" smooth="yes"/>
			<point x="580" y="950"/>
			<point x="564" y="972"/>
			<point x="532" y="972" type="curve" smooth="yes"/>
			<point x="510" y="972"/>
			<point x="488" y="955"/>
			<point x="468" y="941" type="curve" smooth="yes"/>
			<point x="438" y="920"/>
			<point x="396" y="896"/>
		</contour>
		<component base="Icyr"/>
	</outline>
	<anchor name="top" x="369" y="700"/>
</glyph>
<glyph name="Tsecyr" format="2">
	<unicode hex="0426"/>
	<advance width="735"/>
	<outline>
		<contour>
			<point x="626" y="636" type="curve" smooth="yes"/>
			<point x="613" y="692"/>
			<point x="558" y="712"/>
			<point x="516" y="712" type="curve" smooth="yes"/>
			<point x="472" y="712"/>
			<point x="455" y="675"/>
			<point x="455" y="626" type="curve" smooth="yes"/>
			<point x="455" y="581"/>
			<point x="463" y="471"/>
			<point x="463" y="374" type="curve" smooth="yes"/>
			<point x="463" y="270"/>
			<point x="459" y="188"/>
			<point x="453" y="142" type="curve"/>
			<point x="619" y="118" type="line"/>
			<point x="632" y="250"/>
			<point x="635" y="354"/>
			<point x="635" y="453" type="curve" smooth="yes"/>
			<point x="635" y="532"/>
			<point x="634" y="602"/>
		</contour>
		<contour>
			<point x="241" y="622" type="curve" smooth="yes"/>
			<point x="241" y="682"/>
			<point x="185" y="715"/>
			<point x="132" y="715" type="curve" smooth="yes"/>
			<point x="86" y="715"/>
			<point x="67" y="677"/>
			<point x="67" y="631" type="curve" smooth="yes"/>
			<point x="67" y="514"/>
			<point x="63" y="349"/>
			<point x="63" y="211" type="curve" smooth="yes"/>
			<point x="63" y="65"/>
			<point x="121" y="-9"/>
			<point x="264" y="-9" type="curve" smooth="yes"/>
			<point x="330" y="-9"/>
			<point x="421" y="0"/>
			<point x="502" y="0" type="curve" smooth="yes"/>
			<point x="534" y="0"/>
			<point x="564" y="-1"/>
			<point x="590" y="-5" type="curve"/>
			<point x="565" y="17" type="line"/>
			<point x="568" y="2"/>
			<point x="569" y="-18"/>
			<point x="569" y="-31" type="curve" smooth="yes"/>
			<point x="569" y="-80"/>
			<point x="555" y="-93"/>
			<point x="555" y="-125" type="curve" smooth="yes"/>
			<point x="555" y="-172"/>
			<point x="601" y="-198"/>
			<point x="648" y="-198" type="curve" smooth="yes"/>
			<point x="686" y="-198"/>
			<point x="709" y="-178"/>
			<point x="720" y="-147" type="curve" smooth="yes"/>
			<point x="733" y="-110"/>
			<point x="740" y="-59"/>
			<point x="740" y="5" type="curve" smooth="yes"/>
			<point x="740" y="102"/>
			<point x="707" y="169"/>
			<point x="610" y="169" type="curve" smooth="yes"/>
			<point x="502" y="169"/>
			<point x="380" y="157"/>
			<point x="296" y="157" type="curve" smooth="yes"/>
			<point x="242" y="157"/>
			<point x="228" y="176"/>
			<point x="228" y="214" type="curve" smooth="yes"/>
			<point x="228" y="340"/>
			<point x="241" y="486"/>
		</contour>
	</outline>
</glyph>
<glyph name="gecyr" format="2">
	<unicode hex="0433"/>
	<advance width="530"/>
	<outline>
		<contour>
			<point x="65" y="79" type="curve" smooth="yes"/>
			<point x="70" y="32"/>
			<point x="101" y="-10"/>
			<point x="152" y="-10" type="curve" smooth="yes"/>
			<point x="197" y="-10"/>
			<point x="233" y="8"/>
			<point x="233" y="50" type="curve" smooth="yes"/>
			<point x="233" y="84"/>
			<point x="227" y="150"/>
			<point x="227" y="226" type="curve" smooth="yes"/>
			<point x="227" y="298"/>
			<point x="230" y="364"/>
			<point x="235" y="415" type="curve"/>
			<point x="151" y="348" type="line"/>
			<point x="199" y="358"/>
			<point x="238" y="367"/>
			<point x="291" y="367" type="curve" smooth="yes"/>
			<point x="350" y="367"/>
			<point x="395" y="358"/>
			<point x="437" y="358" type="curve" smooth="yes"/>
			<point x="482" y="358"/>
			<point x="525" y="379"/>
			<point x="525" y="426" type="curve" smooth="yes"/>
			<point x="525" y="454"/>
			<point x="511" y="482"/>
			<point x="479" y="501" type="curve" smooth="yes"/>
			<point x="440.348" y="524.191"/>
			<point x="366.01" y="525"/>
			<point x="299" y="525" type="curve" smooth="yes"/>
			<point x="238" y="525"/>
			<point x="177" y="523"/>
			<point x="135" y="516" type="curve" smooth="yes"/>
			<point x="73" y="505"/>
			<point x="56" y="440"/>
			<point x="56" y="352" type="curve" smooth="yes"/>
			<point x="56" y="290"/>
			<point x="58" y="139"/>
		</contour>
	</outline>
	<anchor name="top" x="292" y="515"/>
	<guideline x="87" y="263" angle="90" identifier="rQENFQOEUJ"/>
	<guideline x="90" y="278" angle="90" identifier="rKZszPBnKc"/>
	<guideline x="87" y="263" angle="90" identifier="1UpiQWPmoV"/>
	<guideline x="90" y="278" angle="90" identifier="pIIihmLULH"/>
</glyph>
<glyph name="shchacyr" format="2">
	<unicode hex="0449"/>
	<advance width="991"/>
	<outline>
		<contour>
			<point x="242" y="446" type="curve" smooth="yes"/>
			<point x="242" y="488"/>
			<point x="193" y="527"/>
			<point x="146" y="527" type="curve" smooth="yes"/>
			<point x="100" y="527"/>
			<point x="79" y="504"/>
			<point x="70" y="459" type="curve" smooth="yes"/>
			<point x="58" y="390"/>
			<point x="46" y="244"/>
			<point x="46" y="175" type="curve" smooth="yes"/>
			<point x="46" y="67"/>
			<point x="102" y="-12"/>
			<point x="228" y="-12" type="curve" smooth="yes"/>
			<point x="313" y="-12"/>
			<point x="752" y="2"/>
			<point x="819" y="11" type="curve"/>
			<point x="804" y="32" type="line"/>
			<point x="790" y="-14"/>
			<point x="774" y="-57"/>
			<point x="774" y="-88" type="curve" smooth="yes"/>
			<point x="774" y="-116"/>
			<point x="815" y="-162"/>
			<point x="867" y="-162" type="curve" smooth="yes"/>
			<point x="910" y="-162"/>
			<point x="935" y="-137"/>
			<point x="950" y="-98" type="curve" smooth="yes"/>
			<point x="961" y="-69"/>
			<point x="978" y="-11"/>
			<point x="978" y="59" type="curve" smooth="yes"/>
			<point x="978" y="151"/>
			<point x="936" y="178"/>
			<point x="855" y="178" type="curve" smooth="yes"/>
			<point x="808" y="178"/>
			<point x="449" y="145"/>
			<point x="235" y="145" type="curve" smooth="yes"/>
			<point x="222" y="145"/>
			<point x="218" y="152"/>
			<point x="218" y="164" type="curve" smooth="yes"/>
			<point x="218" y="316"/>
			<point x="242" y="427"/>
		</contour>
		<contour>
			<point x="544" y="416" type="curve" smooth="yes"/>
			<point x="544" y="476"/>
			<point x="491" y="502"/>
			<point x="449" y="502" type="curve" smooth="yes"/>
			<point x="403" y="502"/>
			<point x="376" y="478"/>
			<point x="371" y="431" type="curve" smooth="yes"/>
			<point x="366" y="376"/>
			<point x="362" y="320"/>
			<point x="362" y="264" type="curve" smooth="yes"/>
			<point x="362" y="200"/>
			<point x="367" y="136"/>
			<point x="381" y="73" type="curve"/>
			<point x="553" y="82" type="line"/>
			<point x="553" y="107"/>
			<point x="533" y="151"/>
			<point x="533" y="252" type="curve" smooth="yes"/>
			<point x="533" y="311"/>
			<point x="544" y="403"/>
		</contour>
		<contour>
			<point x="847" y="447" type="curve" smooth="yes"/>
			<point x="842" y="501"/>
			<point x="791" y="526"/>
			<point x="744" y="526" type="curve" smooth="yes"/>
			<point x="699" y="526"/>
			<point x="673" y="491"/>
			<point x="673" y="451" type="curve" smooth="yes"/>
			<point x="673" y="429"/>
			<point x="688" y="388"/>
			<point x="688" y="277" type="curve" smooth="yes"/>
			<point x="688" y="230"/>
			<point x="683" y="156"/>
			<point x="683" y="127" type="curve"/>
			<point x="847" y="137" type="line"/>
			<point x="854" y="176"/>
			<point x="856" y="223"/>
			<point x="856" y="273" type="curve" smooth="yes"/>
			<point x="856" y="329"/>
			<point x="853" y="386"/>
		</contour>
	</outline>
	<guideline x="87" y="263" angle="90" identifier="rQENFQOEUJ"/>
	<guideline x="90" y="278" angle="90" identifier="rKZszPBnKc"/>
	<guideline x="87" y="263" angle="90" identifier="1iybDVN1wf"/>
	<guideline x="90" y="278" angle="90" identifier="NM7UBLP41W"/>
</glyph>
<glyph name="yucyr" format="2">
	<unicode hex="044E"/>
	<advance width="918"/>
	<outline>
		<contour>
			<point x="230" y="470" type="curve" smooth="yes"/>
			<point x="218" y="505"/>
			<point x="183" y="528"/>
			<point x="145" y="528" type="curve" smooth="yes"/>
			<point x="95" y="528"/>
			<point x="61" y="488"/>
			<point x="61" y="445" type="curve" smooth="yes"/>
			<point x="61" y="419"/>
			<point x="86" y="349"/>
			<point x="86" y="286" type="curve" smooth="yes"/>
			<point x="86" y="228"/>
			<point x="51" y="98"/>
			<point x="51" y="69" type="curve" smooth="yes"/>
			<point x="51" y="16"/>
			<point x="95" y="-12"/>
			<point x="139" y="-12" type="curve" smooth="yes"/>
			<point x="173" y="-12"/>
			<point x="201" y="5"/>
			<point x="215" y="47" type="curve" smooth="yes"/>
			<point x="225" y="79"/>
			<point x="240" y="140"/>
			<point x="276" y="170" type="curve" smooth="yes"/>
			<point x="302" y="191"/>
			<point x="329" y="192"/>
			<point x="373" y="192" type="curve" smooth="yes"/>
			<point x="469" y="192"/>
			<point x="544" y="283"/>
			<point x="611" y="370" type="curve" smooth="yes"/>
			<point x="633" y="398"/>
			<point x="646" y="424"/>
			<point x="646" y="453" type="curve" smooth="yes"/>
			<point x="646" y="483"/>
			<point x="618" y="529"/>
			<point x="574" y="529" type="curve" smooth="yes"/>
			<point x="431" y="529"/>
			<point x="351" y="320"/>
			<point x="351" y="232" type="curve" smooth="yes"/>
			<point x="351" y="123"/>
			<point x="406" y="-15"/>
			<point x="613" y="-15" type="curve" smooth="yes"/>
			<point x="791" y="-15"/>
			<point x="883" y="138"/>
			<point x="883" y="241" type="curve" smooth="yes"/>
			<point x="883" y="366"/>
			<point x="811" y="501"/>
			<point x="618" y="501" type="curve" smooth="yes"/>
			<point x="578" y="501"/>
			<point x="526" y="448"/>
			<point x="526" y="401" type="curve" smooth="yes"/>
			<point x="526" y="374"/>
			<point x="553" y="342"/>
			<point x="586" y="342" type="curve" smooth="yes"/>
			<point x="679" y="342"/>
			<point x="714" y="297"/>
			<point x="714" y="241" type="curve" smooth="yes"/>
			<point x="714" y="197"/>
			<point x="677" y="142"/>
			<point x="613" y="142" type="curve" smooth="yes"/>
			<point x="544" y="142"/>
			<point x="515" y="195"/>
			<point x="515" y="232" type="curve" smooth="yes"/>
			<point x="515" y="282"/>
			<point x="529" y="330"/>
			<point x="596" y="358" type="curve"/>
			<point x="481" y="357" type="line"/>
			<point x="444" y="357"/>
			<point x="408" y="356"/>
			<point x="385" y="356" type="curve" smooth="yes"/>
			<point x="279" y="356"/>
			<point x="222" y="341"/>
			<point x="166" y="294" type="curve" smooth="yes"/>
			<point x="104" y="242"/>
			<point x="77" y="128"/>
			<point x="70" y="94" type="curve"/>
			<point x="214" y="59" type="line"/>
			<point x="214" y="60"/>
			<point x="254" y="223"/>
			<point x="254" y="300" type="curve" smooth="yes"/>
			<point x="254" y="367"/>
			<point x="239" y="442"/>
		</contour>
	</outline>
	<guideline x="87" y="263" angle="90" identifier="rQENFQOEUJ"/>
	<guideline x="90" y="278" angle="90" identifier="rKZszPBnKc"/>
	<guideline x="87" y="263" angle="90" identifier="5E34WgFDuY"/>
	<guideline x="90" y="278" angle="90" identifier="Kcc90PHHKR"/>
</glyph>
<glyph name="Zetailcyr" format="2">
	<unicode hex="0498"/>
	<advance width="606"/>
	<outline>
		<contour>
			<point x="217" y="21" type="curve" smooth="yes"/>
			<point x="217" y="-10"/>
			<point x="202" y="-86"/>
			<point x="202" y="-123" type="curve" smooth="yes"/>
			<point x="202" y="-163"/>
			<point x="236" y="-207"/>
			<point x="303" y="-207" type="curve" smooth="yes"/>
			<point x="346" y="-207"/>
			<point x="376" y="-168"/>
			<point x="376" y="-128" type="curve" smooth="yes"/>
			<point x="376" y="-95"/>
			<point x="367" y="-19"/>
			<point x="367" y="61" type="curve" smooth="yes"/>
			<point x="367" y="87"/>
			<point x="345" y="99"/>
			<point x="317" y="99" type="curve" smooth="yes"/>
			<point x="274" y="99"/>
			<point x="217" y="69"/>
		</contour>
		<component base="Zecyr"/>
	</outline>
	<anchor name="top" x="302" y="700"/>
</glyph>
<glyph name="zetailcyr" format="2">
	<unicode hex="0499"/>
	<advance width="546"/>
	<outline>
		<contour>
			<point x="192" y="-59" type="curve" smooth="yes"/>
			<point x="192" y="-143"/>
			<point x="230" y="-192"/>
			<point x="283" y="-192" type="curve" smooth="yes"/>
			<point x="326" y="-192"/>
			<point x="352" y="-153"/>
			<point x="352" y="-113" type="curve" smooth="yes"/>
			<point x="352" y="-90"/>
			<point x="342" y="-3"/>
			<point x="342" y="25" type="curve" smooth="yes"/>
			<point x="342" y="82"/>
			<point x="305" y="102"/>
			<point x="256" y="102" type="curve" smooth="yes"/>
			<point x="214" y="102"/>
			<point x="192" y="75"/>
		</contour>
		<component base="zecyr"/>
	</outline>
	<anchor name="top" x="274" y="515"/>
</glyph>
<glyph name="kabashkcyr" format="2">
	<unicode hex="04A1"/>
	<advance width="750"/>
	<outline>
		<contour>
			<point x="649" y="-13" type="curve" smooth="yes"/>
			<point x="572" y="-13"/>
			<point x="401" y="90"/>
			<point x="340" y="149" type="curve" smooth="yes"/>
			<point x="310" y="176"/>
			<point x="291" y="209"/>
			<point x="291" y="245" type="curve" smooth="yes"/>
			<point x="291" y="274"/>
			<point x="303" y="304"/>
			<point x="332" y="335" type="curve" smooth="yes"/>
			<point x="371" y="379"/>
			<point x="531" y="533"/>
			<point x="651" y="533" type="curve" smooth="yes"/>
			<point x="700" y="533"/>
			<point x="736" y="485"/>
			<point x="736" y="446" type="curve" smooth="yes"/>
			<point x="736" y="405"/>
			<point x="701" y="374"/>
			<point x="657" y="359" type="curve" smooth="yes"/>
			<point x="552" y="319"/>
			<point x="485" y="267"/>
			<point x="485" y="253" type="curve" smooth="yes"/>
			<point x="485" y="236"/>
			<point x="572" y="190"/>
			<point x="673" y="156" type="curve" smooth="yes"/>
			<point x="709" y="145"/>
			<point x="742" y="120"/>
			<point x="742" y="83" type="curve" smooth="yes"/>
			<point x="742" y="37"/>
			<point x="704" y="-13"/>
		</contour>
		<contour>
			<point x="355" y="225" type="curve" smooth="yes"/>
			<point x="355" y="129"/>
			<point x="372" y="94"/>
			<point x="372" y="58" type="curve" smooth="yes"/>
			<point x="372" y="11"/>
			<point x="322" y="-10"/>
			<point x="276" y="-10" type="curve" smooth="yes"/>
			<point x="200" y="-10"/>
			<point x="188" y="77"/>
			<point x="188" y="225" type="curve" smooth="yes"/>
			<point x="188" y="259"/>
			<point x="194" y="321"/>
			<point x="194" y="388" type="curve"/>
			<point x="215" y="368" type="line"/>
			<point x="169" y="363"/>
			<point x="118" y="351"/>
			<point x="94" y="351" type="curve" smooth="yes"/>
			<point x="49" y="351"/>
			<point x="11" y="371"/>
			<point x="11" y="423" type="curve" smooth="yes"/>
			<point x="11" y="489"/>
			<point x="94" y="530"/>
			<point x="216" y="530" type="curve" smooth="yes"/>
			<point x="330" y="530"/>
			<point x="367" y="485"/>
			<point x="367" y="417" type="curve" smooth="yes"/>
			<point x="367" y="353"/>
			<point x="355" y="274"/>
		</contour>
	</outline>
	<guideline x="177.404" y="149.519" angle="90" identifier="3y88Ssr8DV"/>
	<guideline x="86.538" y="263.462" angle="90" identifier="FW16Zi4ekf"/>
	<guideline x="89.904" y="278.365" angle="90" identifier="nZfjBHecze"/>
	<guideline x="86.538" y="263.462" angle="90" identifier="vzyjss2pcN"/>
	<guideline x="89.904" y="278.365" angle="90" identifier="vA6t8av7FN"/>
	<guideline x="86.538" y="263.462" angle="90" identifier="NrtA3xRpn7"/>
	<guideline x="89.904" y="278.365" angle="90" identifier="VUtcNaSb9M"/>
	<guideline x="86.538" y="263.462" angle="90" identifier="l4KwVS3B2v"/>
	<guideline x="89.904" y="278.365" angle="90" identifier="ELOuUGl5K3"/>
	<guideline x="115.865" y="265.865" angle="90" identifier="eBq2AIPycV"/>
	<guideline x="93.75" y="248.077" angle="90" identifier="iStDedfMzM"/>
</glyph>
<glyph name="Ustraightstrokecyr" format="2">
	<unicode hex="04B0"/>
	<advance width="626"/>
	<outline>
		<contour>
			<point x="162" y="237" type="curve" smooth="yes"/>
			<point x="212" y="237"/>
			<point x="351" y="247"/>
			<point x="488" y="247" type="curve" smooth="yes"/>
			<point x="520" y="247"/>
			<point x="539" y="274"/>
			<point x="539" y="304" type="curve" smooth="yes"/>
			<point x="539" y="338"/>
			<point x="508" y="385"/>
			<point x="398" y="385" type="curve" smooth="yes"/>
			<point x="334" y="385"/>
			<point x="178" y="390"/>
			<point x="107" y="368" type="curve" smooth="yes"/>
			<point x="79" y="360"/>
			<point x="67" y="348"/>
			<point x="67" y="326" type="curve" smooth="yes"/>
			<point x="67" y="280"/>
			<point x="92" y="237"/>
		</contour>
		<component base="Ustraightcyr"/>
	</outline>
</glyph>
<glyph name="Chevertcyr" format="2">
	<unicode hex="04B8"/>
	<advance width="677"/>
	<outline>
		<contour>
			<point x="225" y="634" type="curve" smooth="yes"/>
			<point x="225" y="681"/>
			<point x="172" y="712"/>
			<point x="123" y="712" type="curve" smooth="yes"/>
			<point x="77" y="712"/>
			<point x="53" y="669"/>
			<point x="50" y="622" type="curve" smooth="yes"/>
			<point x="48" y="577"/>
			<point x="46" y="514"/>
			<point x="46" y="479" type="curve" smooth="yes"/>
			<point x="46" y="352"/>
			<point x="79" y="220"/>
			<point x="251" y="220" type="curve" smooth="yes"/>
			<point x="377" y="220"/>
			<point x="483" y="314"/>
			<point x="542" y="472" type="curve"/>
			<point x="478" y="522" type="line"/>
			<point x="478" y="522"/>
			<point x="442" y="414"/>
			<point x="442" y="229" type="curve" smooth="yes"/>
			<point x="442" y="173"/>
			<point x="445" y="113"/>
			<point x="457" y="54" type="curve" smooth="yes"/>
			<point x="464" y="13"/>
			<point x="496" y="-12"/>
			<point x="535" y="-12" type="curve" smooth="yes"/>
			<point x="581" y="-12"/>
			<point x="626" y="28"/>
			<point x="626" y="73" type="curve" smooth="yes"/>
			<point x="626" y="82"/>
			<point x="614" y="150"/>
			<point x="614" y="242" type="curve" smooth="yes"/>
			<point x="614" y="437"/>
			<point x="652" y="558"/>
			<point x="652" y="629" type="curve" smooth="yes"/>
			<point x="652" y="679"/>
			<point x="601" y="714"/>
			<point x="557" y="714" type="curve" smooth="yes"/>
			<point x="499" y="714"/>
			<point x="483" y="593"/>
			<point x="451" y="512" type="curve" smooth="yes"/>
			<point x="408" y="404"/>
			<point x="368" y="371"/>
			<point x="286" y="371" type="curve" smooth="yes"/>
			<point x="222.121" y="371"/>
			<point x="212" y="410"/>
			<point x="212" y="478" type="curve" smooth="yes"/>
			<point x="212" y="537"/>
			<point x="225" y="597"/>
		</contour>
		<contour>
			<point x="314" y="583" type="curve" smooth="yes"/>
			<point x="274" y="583"/>
			<point x="274" y="549"/>
			<point x="268" y="491" type="curve" smooth="yes"/>
			<point x="259" y="403"/>
			<point x="248" y="283"/>
			<point x="248" y="206" type="curve" smooth="yes"/>
			<point x="248" y="150"/>
			<point x="276" y="106"/>
			<point x="326" y="106" type="curve" smooth="yes"/>
			<point x="362" y="106"/>
			<point x="380" y="123"/>
			<point x="380" y="159" type="curve" smooth="yes"/>
			<point x="380" y="199"/>
			<point x="370" y="221"/>
			<point x="370" y="301" type="curve" smooth="yes"/>
			<point x="370" y="366"/>
			<point x="393" y="499"/>
			<point x="393" y="522" type="curve" smooth="yes"/>
			<point x="393" y="562"/>
			<point x="351" y="583"/>
		</contour>
	</outline>
	<guideline x="594.231" y="345.673" angle="90" identifier="QSeZTfUsVl"/>
	<guideline x="539.904" y="356.25" angle="90" identifier="y4a83ysajM"/>
	<guideline x="548.077" y="417.308" angle="90" identifier="5MAjum6Wvb"/>
</glyph>
<glyph name="chevertcyr" format="2">
	<unicode hex="04B9"/>
	<advance width="627"/>
	<outline>
		<contour>
			<point x="418" y="46" type="curve" smooth="yes"/>
			<point x="431" y="12"/>
			<point x="455" y="-14"/>
			<point x="499" y="-14" type="curve" smooth="yes"/>
			<point x="549" y="-14"/>
			<point x="589" y="25"/>
			<point x="589" y="63" type="curve" smooth="yes"/>
			<point x="589" y="77"/>
			<point x="561" y="153"/>
			<point x="561" y="224" type="curve" smooth="yes"/>
			<point x="561" y="282"/>
			<point x="581" y="385"/>
			<point x="581" y="429" type="curve" smooth="yes"/>
			<point x="581" y="484"/>
			<point x="538" y="527"/>
			<point x="496" y="527" type="curve" smooth="yes"/>
			<point x="457" y="527"/>
			<point x="418" y="503"/>
			<point x="411" y="453" type="curve" smooth="yes"/>
			<point x="407" y="409"/>
			<point x="395" y="288"/>
			<point x="395" y="223" type="curve" smooth="yes"/>
			<point x="395" y="160"/>
			<point x="403" y="86"/>
		</contour>
		<contour>
			<point x="44" y="330" type="curve" smooth="yes"/>
			<point x="44" y="218"/>
			<point x="103" y="121"/>
			<point x="245" y="121" type="curve" smooth="yes"/>
			<point x="340" y="121"/>
			<point x="409" y="187"/>
			<point x="477" y="273" type="curve"/>
			<point x="405" y="347" type="line"/>
			<point x="370" y="272"/>
			<point x="303" y="266"/>
			<point x="243" y="266" type="curve" smooth="yes"/>
			<point x="221" y="266"/>
			<point x="212" y="289"/>
			<point x="212" y="317" type="curve" smooth="yes"/>
			<point x="212" y="364"/>
			<point x="225" y="416"/>
			<point x="225" y="448" type="curve" smooth="yes"/>
			<point x="225" y="491"/>
			<point x="178" y="529"/>
			<point x="139" y="529" type="curve" smooth="yes"/>
			<point x="60" y="529"/>
			<point x="44" y="429"/>
		</contour>
		<contour>
			<point x="234" y="122" type="curve" smooth="yes"/>
			<point x="234" y="73"/>
			<point x="258" y="37"/>
			<point x="302" y="37" type="curve" smooth="yes"/>
			<point x="336" y="37"/>
			<point x="353" y="55"/>
			<point x="353" y="93" type="curve" smooth="yes"/>
			<point x="353" y="126"/>
			<point x="350" y="171"/>
			<point x="350" y="211" type="curve" smooth="yes"/>
			<point x="350" y="251"/>
			<point x="362" y="297"/>
			<point x="362" y="342" type="curve" smooth="yes"/>
			<point x="362" y="385"/>
			<point x="326" y="408"/>
			<point x="289" y="408" type="curve" smooth="yes"/>
			<point x="259" y="408"/>
			<point x="249" y="385"/>
			<point x="249" y="346" type="curve" smooth="yes"/>
			<point x="249" y="284"/>
			<point x="234" y="180"/>
		</contour>
	</outline>
	<guideline x="411.058" y="247.596" angle="90" identifier="GGEFes61Q6"/>
	<guideline x="444.712" y="249.038" angle="90" identifier="RDFBihUABo"/>
	<guideline x="411.058" y="247.596" angle="90" identifier="idJrD5E4hT"/>
	<guideline x="420.673" y="265.385" angle="90" identifier="g5R8C5mRAs"/>
	<guideline x="411.058" y="247.596" angle="90" identifier="gqaqriYRaR"/>
	<guideline x="420.673" y="265.385" angle="90" identifier="50BbntIidL"/>
	<guideline x="411.058" y="247.596" angle="90" identifier="f1UyLB8JM2"/>
	<guideline x="420.673" y="265.385" angle="90" identifier="1k3H67DnA8"/>
</glyph>
<glyph name="thai:baht" format="2">
	<unicode hex="0E3F"/>
	<advance width="633"/>
	<outline>
		<contour>
			<point x="397" y="700" type="curve" smooth="yes"/>
			<point x="397" y="798"/>
			<point x="357" y="838"/>
			<point x="292" y="838" type="curve" smooth="yes"/>
			<point x="243" y="838"/>
			<point x="228" y="808"/>
			<point x="230" y="763" type="curve" smooth="yes"/>
			<point x="232" y="712"/>
			<point x="231" y="667"/>
			<point x="229" y="623" type="curve"/>
			<point x="394" y="607" type="line"/>
			<point x="396" y="640"/>
			<point x="397" y="670"/>
		</contour>
		<contour>
			<point x="224" y="96" type="line"/>
			<point x="229" y="50"/>
			<point x="236" y="3"/>
			<point x="247" y="-52" type="curve" smooth="yes"/>
			<point x="259" y="-115"/>
			<point x="289" y="-144"/>
			<point x="333" y="-144" type="curve" smooth="yes"/>
			<point x="379" y="-144"/>
			<point x="408" y="-116"/>
			<point x="408" y="-58" type="curve" smooth="yes"/>
			<point x="408" y="-6"/>
			<point x="400" y="38"/>
			<point x="392" y="109" type="curve"/>
		</contour>
		<component base="B"/>
	</outline>
</glyph>
<glyph name="hryvnia" format="2">
	<unicode hex="20B4"/>
	<advance width="658"/>
	<outline>
		<contour>
			<point x="97" y="457" type="curve" smooth="yes"/>
			<point x="45" y="453"/>
			<point x="14" y="431"/>
			<point x="14" y="397" type="curve" smooth="yes"/>
			<point x="14" y="357"/>
			<point x="58" y="347"/>
			<point x="116" y="347" type="curve" smooth="yes"/>
			<point x="190" y="347"/>
			<point x="291" y="357"/>
			<point x="408" y="357" type="curve" smooth="yes"/>
			<point x="450" y="357"/>
			<point x="536" y="351"/>
			<point x="569" y="351" type="curve" smooth="yes"/>
			<point x="624" y="351"/>
			<point x="640" y="371"/>
			<point x="640" y="399" type="curve" smooth="yes"/>
			<point x="640" y="437"/>
			<point x="597" y="463"/>
			<point x="444" y="463" type="curve" smooth="yes"/>
			<point x="330" y="463"/>
			<point x="148" y="461"/>
		</contour>
		<contour>
			<point x="71" y="305" type="curve" smooth="yes"/>
			<point x="19" y="301"/>
			<point x="-2" y="273"/>
			<point x="-2" y="247" type="curve" smooth="yes"/>
			<point x="-2" y="211"/>
			<point x="36" y="191"/>
			<point x="96" y="191" type="curve" smooth="yes"/>
			<point x="181" y="191"/>
			<point x="402" y="208"/>
			<point x="551" y="208" type="curve" smooth="yes"/>
			<point x="588" y="208"/>
			<point x="616" y="230"/>
			<point x="616" y="263" type="curve" smooth="yes"/>
			<point x="616" y="299"/>
			<point x="574" y="318"/>
			<point x="464" y="318" type="curve" smooth="yes"/>
			<point x="324" y="318"/>
			<point x="167" y="312"/>
		</contour>
		<contour>
			<point x="485" y="413" type="line" smooth="yes"/>
			<point x="538" y="455"/>
			<point x="586" y="507"/>
			<point x="586" y="555" type="curve" smooth="yes"/>
			<point x="586" y="659"/>
			<point x="470" y="710"/>
			<point x="327" y="710" type="curve" smooth="yes"/>
			<point x="145" y="710"/>
			<point x="51" y="649"/>
			<point x="51" y="577" type="curve" smooth="yes"/>
			<point x="51" y="539"/>
			<point x="66" y="514"/>
			<point x="101" y="514" type="curve" smooth="yes"/>
			<point x="161" y="514"/>
			<point x="187" y="558"/>
			<point x="300" y="558" type="curve" smooth="yes"/>
			<point x="380" y="558"/>
			<point x="409" y="544"/>
			<point x="409" y="521" type="curve" smooth="yes"/>
			<point x="409" y="498"/>
			<point x="381" y="475"/>
			<point x="338" y="442" type="curve" smooth="yes"/>
			<point x="151" y="297" type="line" smooth="yes"/>
			<point x="110" y="265"/>
			<point x="70" y="202"/>
			<point x="70" y="150" type="curve" smooth="yes"/>
			<point x="70" y="49"/>
			<point x="166" y="-14"/>
			<point x="301" y="-14" type="curve" smooth="yes"/>
			<point x="488" y="-14"/>
			<point x="586" y="43"/>
			<point x="586" y="109" type="curve" smooth="yes"/>
			<point x="586" y="139"/>
			<point x="570" y="158"/>
			<point x="531" y="158" type="curve" smooth="yes"/>
			<point x="469" y="158"/>
			<point x="431" y="132"/>
			<point x="326" y="132" type="curve" smooth="yes"/>
			<point x="257" y="132"/>
			<point x="245" y="155"/>
			<point x="245" y="179" type="curve" smooth="yes"/>
			<point x="245" y="199"/>
			<point x="257" y="232"/>
			<point x="298" y="265" type="curve" smooth="yes"/>
		</contour>
	</outline>
</glyph>
<glyph name="ruble" format="2">
	<unicode hex="20BD"/>
	<advance width="700"/>
	<outline>
		<contour>
			<point x="150" y="105" type="curve" smooth="yes"/>
			<point x="150" y="25"/>
			<point x="195" y="-10"/>
			<point x="249" y="-10" type="curve" smooth="yes"/>
			<point x="318" y="-10"/>
			<point x="328" y="34"/>
			<point x="328" y="90" type="curve" smooth="yes"/>
			<point x="328" y="277.144"/>
			<point x="294" y="376"/>
			<point x="294" y="487" type="curve" smooth="yes"/>
			<point x="294" y="531"/>
			<point x="326" y="553"/>
			<point x="393" y="553" type="curve" smooth="yes"/>
			<point x="452" y="553"/>
			<point x="486" y="534.702"/>
			<point x="486" y="510" type="curve" smooth="yes"/>
			<point x="486" y="467.101"/>
			<point x="432" y="436"/>
			<point x="351" y="436" type="curve" smooth="yes"/>
			<point x="194.059" y="436"/>
			<point x="160.361" y="480"/>
			<point x="92" y="480" type="curve" smooth="yes"/>
			<point x="59" y="480"/>
			<point x="29" y="458"/>
			<point x="29" y="417" type="curve" smooth="yes"/>
			<point x="29" y="336.111"/>
			<point x="100.437" y="287"/>
			<point x="349" y="287" type="curve" smooth="yes"/>
			<point x="532.038" y="287"/>
			<point x="659" y="372"/>
			<point x="659" y="517" type="curve" smooth="yes"/>
			<point x="659" y="640.532"/>
			<point x="545.322" y="708"/>
			<point x="396" y="708" type="curve" smooth="yes"/>
			<point x="213.358" y="708"/>
			<point x="121" y="619"/>
			<point x="121" y="491" type="curve" smooth="yes"/>
			<point x="121" y="377"/>
			<point x="150" y="319"/>
		</contour>
		<contour>
			<point x="135" y="97" type="curve" smooth="yes"/>
			<point x="263" y="97"/>
			<point x="342" y="85"/>
			<point x="477" y="85" type="curve" smooth="yes"/>
			<point x="540" y="85"/>
			<point x="569" y="109"/>
			<point x="569" y="149" type="curve" smooth="yes"/>
			<point x="569" y="205"/>
			<point x="538" y="234"/>
			<point x="459" y="234" type="curve" smooth="yes"/>
			<point x="348" y="234"/>
			<point x="228" y="246"/>
			<point x="119" y="246" type="curve" smooth="yes"/>
			<point x="71" y="246"/>
			<point x="41" y="224"/>
			<point x="41" y="185" type="curve" smooth="yes"/>
			<point x="41" y="141"/>
			<point x="82" y="97"/>
		</contour>
	</outline>
</glyph>
<glyph name="increment" format="2">
	<unicode hex="2206"/>
	<advance width="700"/>
	<outline>
		<contour>
			<point x="96" y="164" type="curve" smooth="yes"/>
			<point x="49" y="164"/>
			<point x="17" y="133"/>
			<point x="17" y="90" type="curve" smooth="yes"/>
			<point x="17" y="26"/>
			<point x="60" y="-14"/>
			<point x="155" y="-14" type="curve" smooth="yes"/>
			<point x="244" y="-14"/>
			<point x="330" y="0"/>
			<point x="444" y="0" type="curve" smooth="yes"/>
			<point x="482" y="0"/>
			<point x="522" y="-4"/>
			<point x="566" y="-4" type="curve" smooth="yes"/>
			<point x="614" y="-4"/>
			<point x="651" y="18"/>
			<point x="651" y="65" type="curve" smooth="yes"/>
			<point x="651" y="125"/>
			<point x="607" y="175"/>
			<point x="458" y="175" type="curve" smooth="yes"/>
			<point x="344" y="175"/>
			<point x="257" y="158"/>
			<point x="189" y="158" type="curve" smooth="yes"/>
			<point x="148" y="158"/>
			<point x="130" y="164"/>
		</contour>
		<contour>
			<point x="517" y="28" type="curve" smooth="yes"/>
			<point x="554" y="-10"/>
			<point x="575" y="-17"/>
			<point x="603" y="-17" type="curve" smooth="yes"/>
			<point x="684" y="-17"/>
			<point x="709.619" y="89.106"/>
			<point x="654" y="137" type="curve" smooth="yes"/>
			<point x="533" y="243"/>
			<point x="561" y="444"/>
			<point x="443" y="643" type="curve" smooth="yes"/>
			<point x="414" y="692"/>
			<point x="374" y="716"/>
			<point x="333" y="716" type="curve" smooth="yes"/>
			<point x="302" y="716"/>
			<point x="287" y="704"/>
			<point x="263" y="660" type="curve" smooth="yes"/>
			<point x="169" y="484"/>
			<point x="139" y="349"/>
			<point x="59" y="148" type="curve" smooth="yes"/>
			<point x="35" y="88"/>
			<point x="79" y="28"/>
			<point x="139" y="28" type="curve" smooth="yes"/>
			<point x="173" y="28"/>
			<point x="207" y="48"/>
			<point x="221" y="82" type="curve" smooth="yes"/>
			<point x="285" y="237"/>
			<point x="301" y="342"/>
			<point x="373" y="480" type="curve"/>
			<point x="326" y="480" type="line"/>
			<point x="420" y="275"/>
			<point x="407" y="144"/>
		</contour>
	</outline>
</glyph>
<glyph name="lessequal" format="2">
	<unicode hex="2264"/>
	<advance width="700"/>
	<outline>
		<contour>
			<point x="555" y="482" type="curve" smooth="yes"/>
			<point x="606" y="489"/>
			<point x="618" y="524.646"/>
			<point x="618" y="557" type="curve" smooth="yes"/>
			<point x="618" y="599.406"/>
			<point x="582.356" y="634"/>
			<point x="518" y="634" type="curve" smooth="yes"/>
			<point x="496.137" y="634"/>
			<point x="462" y="629"/>
			<point x="426" y="620" type="curve" smooth="yes"/>
			<point x="322.924" y="597.304"/>
			<point x="208.824" y="556.44"/>
			<point x="128" y="518" type="curve" smooth="yes"/>
			<point x="85.357" y="498.811"/>
			<point x="70" y="481.836"/>
			<point x="70" y="438" type="curve" smooth="yes"/>
			<point x="70" y="397.5"/>
			<point x="87.254" y="374.998"/>
			<point x="121" y="357" type="curve" smooth="yes"/>
			<point x="199.82" y="316.131"/>
			<point x="318.68" y="277.18"/>
			<point x="475" y="258" type="curve" smooth="yes"/>
			<point x="509" y="253"/>
			<point x="532" y="251"/>
			<point x="569" y="251" type="curve" smooth="yes"/>
			<point x="615.233" y="251"/>
			<point x="644" y="271.727"/>
			<point x="644" y="311" type="curve" smooth="yes"/>
			<point x="644" y="355.267"/>
			<point x="628" y="393"/>
			<point x="569" y="397" type="curve" smooth="yes"/>
			<point x="447" y="404"/>
			<point x="351" y="420"/>
			<point x="278" y="450" type="curve"/>
			<point x="278" y="421" type="line"/>
			<point x="348" y="446"/>
			<point x="445" y="466"/>
		</contour>
		<contour>
			<point x="544" y="58" type="curve" smooth="yes"/>
			<point x="617" y="58"/>
			<point x="638" y="85"/>
			<point x="638" y="123" type="curve" smooth="yes"/>
			<point x="638" y="182"/>
			<point x="588" y="208"/>
			<point x="500" y="208" type="curve" smooth="yes"/>
			<point x="388" y="208"/>
			<point x="274" y="202"/>
			<point x="148" y="185" type="curve" smooth="yes"/>
			<point x="69" y="173"/>
			<point x="50" y="143"/>
			<point x="50" y="109" type="curve" smooth="yes"/>
			<point x="50" y="60"/>
			<point x="89" y="26"/>
			<point x="151" y="26" type="curve" smooth="yes"/>
			<point x="238" y="26"/>
			<point x="283" y="58"/>
		</contour>
	</outline>
	<guideline x="161" y="361" angle="0" identifier="rW7m8EbV2I"/>
</glyph>
<glyph name="circlewhite" format="2">
	<unicode hex="25CB"/>
	<advance width="800"/>
	<outline>
		<contour>
			<point x="347" y="516" type="curve" smooth="yes"/>
			<point x="398" y="549"/>
			<point x="381" y="648"/>
			<point x="289" y="648" type="curve" smooth="yes"/>
			<point x="245" y="648"/>
			<point x="52" y="518"/>
			<point x="52" y="320" type="curve" smooth="yes"/>
			<point x="52" y="111"/>
			<point x="201" y="-10"/>
			<point x="379" y="-10" type="curve" smooth="yes"/>
			<point x="578" y="-10"/>
			<point x="748" y="129"/>
			<point x="748" y="350" type="curve" smooth="yes"/>
			<point x="748" y="540"/>
			<point x="601" y="711"/>
			<point x="386" y="711" type="curve" smooth="yes"/>
			<point x="291" y="711"/>
			<point x="237" y="661"/>
			<point x="237" y="598" type="curve" smooth="yes"/>
			<point x="237" y="544"/>
			<point x="268" y="518"/>
			<point x="305" y="518" type="curve" smooth="yes"/>
			<point x="348" y="518"/>
			<point x="349" y="545"/>
			<point x="393" y="545" type="curve" smooth="yes"/>
			<point x="506" y="545"/>
			<point x="578" y="449"/>
			<point x="578" y="350" type="curve" smooth="yes"/>
			<point x="578" y="227"/>
			<point x="494" y="158"/>
			<point x="381" y="158" type="curve" smooth="yes"/>
			<point x="294" y="158"/>
			<point x="225" y="198"/>
			<point x="225" y="320" type="curve" smooth="yes"/>
			<point x="225" y="394"/>
			<point x="259" y="459"/>
		</contour>
	</outline>
</glyph>
<glyph name="braceleft.case" format="2">
	<advance width="453"/>
	<outline>
		<contour>
			<point x="368" y="609" type="curve" smooth="yes"/>
			<point x="415" y="617"/>
			<point x="442" y="641"/>
			<point x="442" y="687" type="curve" smooth="yes"/>
			<point x="442" y="734"/>
			<point x="399" y="780"/>
			<point x="340" y="780" type="curve" smooth="yes"/>
			<point x="201.86" y="780"/>
			<point x="115" y="678"/>
			<point x="115" y="591" type="curve" smooth="yes"/>
			<point x="115" y="528.926"/>
			<point x="161" y="508.544"/>
			<point x="161" y="465" type="curve" smooth="yes"/>
			<point x="161" y="442"/>
			<point x="152" y="430"/>
			<point x="86" y="411" type="curve" smooth="yes"/>
			<point x="43.486" y="398.853"/>
			<point x="30" y="364.939"/>
			<point x="30" y="335" type="curve" smooth="yes"/>
			<point x="30" y="284.375"/>
			<point x="54.865" y="252.02"/>
			<point x="102" y="245" type="curve" smooth="yes"/>
			<point x="167" y="234"/>
			<point x="176" y="225"/>
			<point x="176" y="201" type="curve" smooth="yes"/>
			<point x="176" y="169.81"/>
			<point x="144" y="149.628"/>
			<point x="144" y="90" type="curve" smooth="yes"/>
			<point x="144" y="5"/>
			<point x="239.84" y="-80"/>
			<point x="342" y="-80" type="curve" smooth="yes"/>
			<point x="408" y="-80"/>
			<point x="455" y="-32"/>
			<point x="455" y="25" type="curve" smooth="yes"/>
			<point x="455" y="66"/>
			<point x="431" y="85"/>
			<point x="397" y="87" type="curve" smooth="yes"/>
			<point x="353.061" y="90.563"/>
			<point x="334" y="105"/>
			<point x="334" y="129" type="curve" smooth="yes"/>
			<point x="334" y="158.355"/>
			<point x="362" y="193.215"/>
			<point x="362" y="240" type="curve" smooth="yes"/>
			<point x="362" y="304.221"/>
			<point x="317.812" y="358.195"/>
			<point x="116" y="363" type="curve"/>
			<point x="116" y="313" type="line"/>
			<point x="314.041" y="336.073"/>
			<point x="354" y="377"/>
			<point x="354" y="441" type="curve" smooth="yes"/>
			<point x="354" y="499"/>
			<point x="308" y="529.889"/>
			<point x="308" y="566" type="curve" smooth="yes"/>
			<point x="308" y="589"/>
			<point x="319.013" y="600.636"/>
		</contour>
	</outline>
	<guideline y="780" identifier="Nnezee5Yms"/>
	<guideline y="-80" identifier="jmF8rj4KbY"/>
</glyph>
<glyph name="geupcyr.ss01" format="2">
	<advance width="530"/>
	<outline>
		<contour>
			<point x="364" y="359" type="curve" smooth="yes"/>
			<point x="343" y="360"/>
			<point x="293" y="364"/>
			<point x="264" y="364" type="curve" smooth="yes"/>
			<point x="211" y="364"/>
			<point x="189" y="358"/>
			<point x="151" y="347" type="curve"/>
			<point x="235" y="415" type="line"/>
			<point x="230" y="364"/>
			<point x="227" y="298"/>
			<point x="227" y="226" type="curve" smooth="yes"/>
			<point x="227" y="162"/>
			<point x="233" y="88"/>
			<point x="233" y="50" type="curve" smooth="yes"/>
			<point x="233" y="8"/>
			<point x="197" y="-10"/>
			<point x="152" y="-10" type="curve" smooth="yes"/>
			<point x="101" y="-10"/>
			<point x="70" y="32"/>
			<point x="65" y="79" type="curve" smooth="yes"/>
			<point x="58" y="139"/>
			<point x="56" y="290"/>
			<point x="56" y="352" type="curve" smooth="yes"/>
			<point x="56" y="440"/>
			<point x="73" y="505"/>
			<point x="135" y="516" type="curve" smooth="yes"/>
			<point x="156" y="520"/>
			<point x="177" y="521"/>
			<point x="219" y="521" type="curve" smooth="yes"/>
			<point x="271" y="521"/>
			<point x="377" y="505"/>
			<point x="413" y="487" type="curve"/>
			<point x="369" y="468" type="line"/>
			<point x="355" y="524"/>
			<point x="355" y="575"/>
			<point x="359" y="601" type="curve" smooth="yes"/>
			<point x="366" y="642"/>
			<point x="398" y="674"/>
			<point x="453" y="665" type="curve" smooth="yes"/>
			<point x="500" y="657"/>
			<point x="509" y="608"/>
			<point x="513" y="545" type="curve" smooth="yes"/>
			<point x="516" y="476"/>
			<point x="524" y="375"/>
			<point x="517" y="323" type="curve" smooth="yes"/>
			<point x="512" y="287"/>
			<point x="489" y="266"/>
			<point x="453" y="266" type="curve" smooth="yes"/>
			<point x="366" y="266"/>
			<point x="380" y="358"/>
		</contour>
	</outline>
	<guideline x="86.538" y="263.462" angle="90" identifier="rQENFQOEUJ"/>
	<guideline x="89.904" y="278.365" angle="90" identifier="rKZszPBnKc"/>
	<guideline x="86.538" y="263.462" angle="90" identifier="1UpiQWPmoV"/>
	<guideline x="89.904" y="278.365" angle="90" identifier="pIIihmLULH"/>
	<guideline x="86.538" y="263.462" angle="90" identifier="vjTySaR57U"/>
	<guideline x="89.904" y="278.365" angle="90" identifier="PtsIxNZY3U"/>
</glyph>
<glyph name="zhe-cy.loclBGR" format="2">
	<advance width="878"/>
	<outline>
		<contour>
			<point x="539" y="702" type="curve" smooth="yes"/>
			<point x="539" y="742"/>
			<point x="518" y="768"/>
			<point x="473" y="768" type="curve" smooth="yes"/>
			<point x="427" y="768"/>
			<point x="369" y="736"/>
			<point x="369" y="683" type="curve" smooth="yes"/>
			<point x="369" y="623"/>
			<point x="361" y="383"/>
			<point x="361" y="277" type="curve" smooth="yes"/>
			<point x="361" y="194"/>
			<point x="352" y="122"/>
			<point x="352" y="76" type="curve" smooth="yes"/>
			<point x="352" y="29"/>
			<point x="383" y="-15"/>
			<point x="429" y="-15" type="curve" smooth="yes"/>
			<point x="483" y="-15"/>
			<point x="521" y="15"/>
			<point x="521" y="61" type="curve" smooth="yes"/>
			<point x="521" y="105"/>
			<point x="521" y="180"/>
			<point x="521" y="261" type="curve" smooth="yes"/>
			<point x="521" y="355"/>
			<point x="539" y="636"/>
		</contour>
		<contour>
			<point x="294" y="417" type="curve" smooth="yes"/>
			<point x="233" y="465"/>
			<point x="169" y="530"/>
			<point x="126" y="530" type="curve" smooth="yes"/>
			<point x="81" y="530"/>
			<point x="49" y="485"/>
			<point x="49" y="449" type="curve" smooth="yes"/>
			<point x="49" y="387"/>
			<point x="108" y="342"/>
			<point x="182" y="300" type="curve" smooth="yes"/>
			<point x="267" y="252"/>
			<point x="308" y="237"/>
			<point x="332" y="233" type="curve"/>
			<point x="296" y="308" type="line"/>
			<point x="285" y="303"/>
			<point x="276" y="294"/>
			<point x="201" y="249" type="curve" smooth="yes"/>
			<point x="99" y="187"/>
			<point x="30" y="134"/>
			<point x="30" y="82" type="curve" smooth="yes"/>
			<point x="30" y="35"/>
			<point x="67" y="-13"/>
			<point x="109" y="-13" type="curve" smooth="yes"/>
			<point x="152" y="-13"/>
			<point x="215" y="57"/>
			<point x="282" y="116" type="curve" smooth="yes"/>
			<point x="324" y="153"/>
			<point x="348" y="179"/>
			<point x="387" y="201" type="curve"/>
			<point x="389" y="344" type="line"/>
			<point x="359" y="360"/>
			<point x="328" y="390"/>
		</contour>
		<contour>
			<point x="736" y="312" type="curve" smooth="yes"/>
			<point x="794" y="352"/>
			<point x="843" y="382"/>
			<point x="843" y="438" type="curve" smooth="yes"/>
			<point x="843" y="481"/>
			<point x="805" y="530"/>
			<point x="753" y="530" type="curve" smooth="yes"/>
			<point x="724" y="530"/>
			<point x="698" y="503"/>
			<point x="671" y="476" type="curve" smooth="yes"/>
			<point x="628" y="433"/>
			<point x="564" y="376"/>
			<point x="513" y="330" type="curve" smooth="yes"/>
			<point x="493" y="312"/>
			<point x="473" y="290"/>
			<point x="473" y="263" type="curve" smooth="yes"/>
			<point x="473" y="248"/>
			<point x="478" y="236"/>
			<point x="486" y="224" type="curve" smooth="yes"/>
			<point x="497" y="208"/>
			<point x="539" y="153"/>
			<point x="633" y="75" type="curve" smooth="yes"/>
			<point x="699" y="20"/>
			<point x="745" y="-7"/>
			<point x="797" y="-7" type="curve" smooth="yes"/>
			<point x="846" y="-7"/>
			<point x="868" y="28"/>
			<point x="868" y="74" type="curve" smooth="yes"/>
			<point x="868" y="125"/>
			<point x="832" y="142"/>
			<point x="766" y="180" type="curve" smooth="yes"/>
			<point x="681" y="229"/>
			<point x="663" y="244"/>
			<point x="663" y="257" type="curve" smooth="yes"/>
			<point x="663" y="263"/>
			<point x="686" y="278"/>
		</contour>
	</outline>
</glyph>
